<svg width="168" height="247" viewBox="0 0 168 247" fill="none" xmlns="http://www.w3.org/2000/svg">
<rect y="44.3223" width="167.913" height="0.198713" fill="black"/>
<path d="M5.27583 33.5742C5.27583 33.8842 5.2192 34.1614 5.10593 34.4058C4.99267 34.6442 4.83469 34.8469 4.632 35.0138C4.42931 35.1748 4.18788 35.3 3.90769 35.3894C3.62751 35.4729 3.31751 35.5146 2.97772 35.5146C2.5008 35.5146 2.03283 35.4341 1.57381 35.2732C1.11478 35.1062 0.697483 34.8529 0.321915 34.5131L1.13565 33.5384C1.42179 33.7709 1.7139 33.9557 2.01197 34.0928C2.316 34.2299 2.64686 34.2985 3.00454 34.2985C3.29069 34.2985 3.51126 34.2478 3.66626 34.1465C3.82721 34.0391 3.90769 33.8931 3.90769 33.7083V33.6904C3.90769 33.601 3.88981 33.5235 3.85404 33.4579C3.82423 33.3864 3.76164 33.3208 3.66626 33.2612C3.57684 33.2016 3.44867 33.142 3.28175 33.0823C3.12079 33.0227 2.90916 32.9601 2.64686 32.8946C2.3309 32.8171 2.04476 32.7306 1.78842 32.6352C1.53208 32.5399 1.31449 32.4236 1.13565 32.2865C0.956803 32.1434 0.816711 31.9676 0.715367 31.7589C0.619985 31.5503 0.572294 31.2909 0.572294 30.981V30.9631C0.572294 30.6769 0.625946 30.4206 0.733251 30.194C0.840556 29.9616 0.989591 29.7618 1.18036 29.5949C1.37708 29.428 1.60958 29.2998 1.87784 29.2104C2.1461 29.121 2.44119 29.0763 2.76311 29.0763C3.22213 29.0763 3.64241 29.1448 4.02394 29.282C4.41143 29.4191 4.76613 29.6158 5.08805 29.8721L4.37268 30.9094C4.0925 30.7187 3.81827 30.5696 3.55001 30.4623C3.28175 30.349 3.01348 30.2924 2.74522 30.2924C2.47696 30.2924 2.27427 30.3461 2.13716 30.4534C2.00601 30.5547 1.94043 30.6829 1.94043 30.8379V30.8558C1.94043 30.9571 1.95832 31.0465 1.99409 31.124C2.03582 31.1956 2.10735 31.2611 2.2087 31.3208C2.31004 31.3804 2.44715 31.437 2.62003 31.4907C2.79887 31.5443 3.02243 31.6069 3.29069 31.6784C3.60664 31.7619 3.88683 31.8573 4.13124 31.9646C4.38162 32.0659 4.59027 32.1911 4.75719 32.3402C4.93007 32.4832 5.05824 32.6531 5.1417 32.8498C5.23112 33.0466 5.27583 33.2821 5.27583 33.5563V33.5742ZM12.8466 32.2954C12.8466 32.7425 12.7632 33.1628 12.5963 33.5563C12.4293 33.9438 12.1968 34.2865 11.8988 34.5846C11.6067 34.8767 11.2549 35.1092 10.8436 35.2821C10.4382 35.449 9.99411 35.5325 9.51124 35.5325C9.02837 35.5325 8.58424 35.449 8.17887 35.2821C7.77349 35.1092 7.42177 34.8797 7.1237 34.5936C6.83159 34.3014 6.60208 33.9616 6.43516 33.5742C6.2742 33.1807 6.19372 32.7604 6.19372 32.3133V32.2954C6.19372 31.8483 6.27718 31.431 6.4441 31.0435C6.61102 30.6501 6.84053 30.3073 7.13264 30.0152C7.43071 29.7171 7.78243 29.4846 8.18781 29.3177C8.59915 29.1448 9.04625 29.0584 9.52912 29.0584C10.012 29.0584 10.4561 29.1448 10.8615 29.3177C11.2669 29.4846 11.6156 29.7142 11.9077 30.0063C12.2058 30.2924 12.4353 30.6322 12.5963 31.0257C12.7632 31.4132 12.8466 31.8305 12.8466 32.2776V32.2954ZM11.407 32.3133V32.2954C11.407 32.0272 11.3593 31.7738 11.2639 31.5354C11.1745 31.2969 11.0433 31.0883 10.8704 30.9094C10.7035 30.7306 10.5038 30.5905 10.2713 30.4891C10.0388 30.3818 9.78546 30.3282 9.51124 30.3282C9.23105 30.3282 8.97471 30.3789 8.74222 30.4802C8.51569 30.5815 8.31896 30.7216 8.15204 30.9005C7.99108 31.0793 7.86291 31.288 7.76753 31.5264C7.67811 31.7589 7.6334 32.0093 7.6334 32.2776V32.2954C7.6334 32.5637 7.67811 32.8171 7.76753 33.0555C7.86291 33.294 7.99406 33.5026 8.16098 33.6815C8.33386 33.8603 8.53357 34.0034 8.7601 34.1107C8.9926 34.212 9.24894 34.2627 9.52912 34.2627C9.80335 34.2627 10.0567 34.212 10.2892 34.1107C10.5217 34.0093 10.7184 33.8692 10.8794 33.6904C11.0463 33.5116 11.1745 33.3059 11.2639 33.0734C11.3593 32.8349 11.407 32.5816 11.407 32.3133ZM18.8343 30.4176H15.4453V31.75H18.4319V33.0019H15.4453V35.4252H14.0682V29.1657H18.8343V30.4176ZM24.6758 30.4355H22.7711V35.4252H21.394V30.4355H19.4894V29.1657H24.6758V30.4355ZM34.7485 29.1657L32.6113 35.4699H31.4131L30.0002 31.3744L28.5874 35.4699H27.3891L25.252 29.1657H26.7274L28.024 33.4043L29.4279 29.1478H30.6083L32.0122 33.4043L33.3088 29.1657H34.7485ZM41.867 35.4252H40.4273L39.855 34.0213H37.2082L36.6359 35.4252H35.232L37.9146 29.121H39.1844L41.867 35.4252ZM39.3632 32.8051L38.5316 30.7753L37.7 32.8051H39.3632ZM48.2431 35.4252H46.6335L45.2922 33.4221H44.2102V35.4252H42.8331V29.1657H45.6946C46.4397 29.1657 47.018 29.3475 47.4293 29.7112C47.8466 30.0748 48.0553 30.5815 48.0553 31.2313V31.2492C48.0553 31.7559 47.9301 32.1703 47.6797 32.4922C47.4353 32.8081 47.1134 33.0406 46.714 33.1896L48.2431 35.4252ZM46.6603 31.3208V31.3029C46.6603 31.0048 46.5649 30.7812 46.3742 30.6322C46.1834 30.4832 45.9181 30.4087 45.5783 30.4087H44.2102V32.206H45.6051C45.9449 32.206 46.2043 32.1255 46.3831 31.9646C46.5679 31.8036 46.6603 31.589 46.6603 31.3208ZM54.0613 35.4252H49.2951V29.1657H54.0166V30.3908H50.6633V31.6606H53.6142V32.8856H50.6633V34.2001H54.0613V35.4252Z" fill="#101010"/>
<path d="M161.962 32.2865C161.962 32.7276 161.899 33.1449 161.774 33.5384C161.649 33.9318 161.47 34.2776 161.237 34.5757C161.011 34.8678 160.734 35.1003 160.406 35.2732C160.078 35.446 159.714 35.5325 159.315 35.5325C158.909 35.5325 158.543 35.449 158.215 35.2821C157.893 35.1092 157.616 34.8767 157.383 34.5846C157.157 34.2865 156.981 33.9438 156.856 33.5563C156.736 33.1628 156.677 32.7455 156.677 32.3044C156.677 31.8632 156.739 31.4459 156.865 31.0525C156.99 30.659 157.166 30.3163 157.392 30.0241C157.625 29.7261 157.905 29.4906 158.233 29.3177C158.561 29.1448 158.927 29.0584 159.333 29.0584C159.732 29.0584 160.093 29.1448 160.415 29.3177C160.743 29.4846 161.02 29.7171 161.246 30.0152C161.479 30.3073 161.655 30.6501 161.774 31.0435C161.899 31.431 161.962 31.8454 161.962 32.2865ZM161.228 32.3044C161.228 31.9586 161.184 31.6307 161.094 31.3208C161.005 31.0048 160.877 30.7276 160.71 30.4891C160.543 30.2507 160.34 30.0599 160.102 29.9168C159.869 29.7738 159.607 29.7022 159.315 29.7022C159.023 29.7022 158.757 29.7738 158.519 29.9168C158.286 30.054 158.087 30.2417 157.92 30.4802C157.759 30.7127 157.634 30.9869 157.544 31.3029C157.455 31.6129 157.41 31.9407 157.41 32.2865C157.41 32.6323 157.455 32.9631 157.544 33.2791C157.634 33.595 157.762 33.8722 157.929 34.1107C158.096 34.3491 158.298 34.5399 158.537 34.683C158.775 34.8201 159.041 34.8886 159.333 34.8886C159.625 34.8886 159.887 34.8201 160.12 34.683C160.358 34.5399 160.558 34.3521 160.719 34.1196C160.886 33.8812 161.011 33.6069 161.094 33.297C161.184 32.981 161.228 32.6501 161.228 32.3044ZM163.4 32.215L163.579 29.1657H167.182V29.8185H164.196L164.062 31.8215C164.246 31.738 164.431 31.6725 164.616 31.6248C164.807 31.5711 165.033 31.5443 165.296 31.5443C165.6 31.5443 165.883 31.589 166.145 31.6784C166.407 31.7679 166.637 31.896 166.834 32.0629C167.03 32.2239 167.182 32.4236 167.29 32.6621C167.403 32.9005 167.46 33.1688 167.46 33.4669C167.46 33.7768 167.403 34.06 167.29 34.3164C167.182 34.5667 167.03 34.7843 166.834 34.9691C166.637 35.148 166.401 35.2881 166.127 35.3894C165.853 35.4848 165.552 35.5325 165.224 35.5325C164.777 35.5325 164.363 35.4401 163.981 35.2553C163.606 35.0645 163.275 34.8261 162.989 34.5399L163.454 34.0302C163.728 34.2985 164.011 34.5101 164.303 34.6651C164.601 34.8141 164.911 34.8886 165.233 34.8886C165.454 34.8886 165.656 34.8559 165.841 34.7903C166.032 34.7187 166.193 34.6204 166.324 34.4952C166.455 34.37 166.556 34.224 166.628 34.057C166.705 33.8842 166.744 33.6964 166.744 33.4937C166.744 33.297 166.705 33.1181 166.628 32.9572C166.556 32.7962 166.452 32.6591 166.315 32.5458C166.178 32.4266 166.014 32.3342 165.823 32.2686C165.632 32.203 165.421 32.1703 165.188 32.1703C164.92 32.1703 164.679 32.206 164.464 32.2776C164.255 32.3431 164.059 32.4266 163.874 32.5279L163.4 32.215Z" fill="#101010"/>
<path d="M0.787513 63.7672V57.2639H4.68698V57.9625H1.57503V60.1599H4.39483V60.8585H1.57503V63.7672H0.787513ZM5.93414 63.7672V58.8897H6.68354V63.7672H5.93414ZM6.31519 58.0768C6.16912 58.0768 6.04316 58.027 5.93731 57.9275C5.83358 57.828 5.78171 57.7084 5.78171 57.5687C5.78171 57.429 5.83358 57.3094 5.93731 57.2099C6.04316 57.1104 6.16912 57.0606 6.31519 57.0606C6.46126 57.0606 6.58616 57.1104 6.68989 57.2099C6.79574 57.3094 6.84867 57.429 6.84867 57.5687C6.84867 57.7084 6.79574 57.828 6.68989 57.9275C6.58616 58.027 6.46126 58.0768 6.31519 58.0768ZM10.0249 65.6979C9.66292 65.6979 9.35172 65.6513 9.09133 65.5582C8.83095 65.4671 8.61396 65.3465 8.44037 65.1962C8.26889 65.048 8.13235 64.8892 8.03073 64.7198L8.62772 64.3007C8.69546 64.3896 8.7812 64.4912 8.88493 64.6055C8.98866 64.722 9.1305 64.8225 9.31044 64.9072C9.4925 64.994 9.73066 65.0374 10.0249 65.0374C10.4187 65.0374 10.7436 64.9421 10.9998 64.7516C11.2559 64.5611 11.384 64.2626 11.384 63.8561V62.8654H11.3205C11.2655 62.9543 11.1871 63.0644 11.0855 63.1956C10.986 63.3248 10.8421 63.4401 10.6537 63.5418C10.4674 63.6413 10.2154 63.691 9.8979 63.691C9.50414 63.691 9.15061 63.5979 8.8373 63.4116C8.5261 63.2253 8.27948 62.9543 8.09742 62.5986C7.91747 62.243 7.8275 61.8111 7.8275 61.3031C7.8275 60.8035 7.91536 60.3684 8.09107 59.9979C8.26677 59.6254 8.51128 59.3374 8.8246 59.1342C9.13791 58.9289 9.49991 58.8262 9.9106 58.8262C10.2281 58.8262 10.4801 58.8791 10.6664 58.985C10.8548 59.0887 10.9987 59.2073 11.0982 59.3406C11.1998 59.4719 11.2782 59.5798 11.3332 59.6645H11.4094V58.8897H12.1334V63.9069C12.1334 64.3261 12.0382 64.6669 11.8476 64.9294C11.6592 65.1941 11.4052 65.3878 11.0855 65.5105C10.768 65.6354 10.4144 65.6979 10.0249 65.6979ZM9.99952 63.0178C10.3001 63.0178 10.5542 62.949 10.7616 62.8114C10.9691 62.6738 11.1268 62.4759 11.2348 62.2176C11.3427 61.9593 11.3967 61.6502 11.3967 61.2904C11.3967 60.9389 11.3438 60.6288 11.2379 60.3599C11.1321 60.0911 10.9754 59.8805 10.768 59.728C10.5605 59.5756 10.3044 59.4994 9.99952 59.4994C9.68197 59.4994 9.41735 59.5798 9.20565 59.7407C8.99607 59.9016 8.83836 60.1176 8.73251 60.3885C8.62878 60.6595 8.57691 60.9601 8.57691 61.2904C8.57691 61.6291 8.62983 61.9286 8.73568 62.189C8.84365 62.4473 9.00242 62.6505 9.212 62.7987C9.4237 62.9448 9.6862 63.0178 9.99952 63.0178ZM13.5052 63.7672V58.8897H14.2292V59.6518H14.2927C14.3943 59.3914 14.5584 59.1893 14.7849 59.0453C15.0114 58.8992 15.2835 58.8262 15.601 58.8262C15.9228 58.8262 16.1906 58.8992 16.4044 59.0453C16.6203 59.1893 16.7886 59.3914 16.9093 59.6518H16.9601C17.085 59.3999 17.2724 59.1998 17.5222 59.0517C17.772 58.9014 18.0715 58.8262 18.4208 58.8262C18.8569 58.8262 19.2136 58.9627 19.491 59.2358C19.7683 59.5068 19.9069 59.9291 19.9069 60.5028V63.7672H19.1575V60.5028C19.1575 60.143 19.0591 59.8857 18.8622 59.7312C18.6653 59.5767 18.4335 59.4994 18.1668 59.4994C17.8238 59.4994 17.5582 59.6031 17.3698 59.8106C17.1813 60.0159 17.0871 60.2763 17.0871 60.5918V63.7672H16.325V60.4266C16.325 60.1493 16.2351 59.926 16.0551 59.7566C15.8752 59.5851 15.6434 59.4994 15.3597 59.4994C15.1649 59.4994 14.9829 59.5513 14.8135 59.655C14.6463 59.7587 14.5108 59.9027 14.4071 60.0869C14.3054 60.2689 14.2546 60.4796 14.2546 60.7188V63.7672H13.5052ZM22.7125 63.8815C22.4034 63.8815 22.1229 63.8233 21.871 63.7069C21.619 63.5883 21.419 63.4179 21.2708 63.1956C21.1226 62.9712 21.0485 62.7003 21.0485 62.3827C21.0485 62.1033 21.1036 61.8768 21.2136 61.7032C21.3237 61.5275 21.4709 61.3899 21.655 61.2904C21.8392 61.1909 22.0424 61.1168 22.2647 61.0681C22.4891 61.0173 22.7146 60.977 22.9411 60.9474C23.2375 60.9093 23.4777 60.8807 23.6619 60.8617C23.8482 60.8405 23.9837 60.8056 24.0684 60.7569C24.1552 60.7082 24.1986 60.6235 24.1986 60.5028V60.4774C24.1986 60.1641 24.1128 59.9207 23.9414 59.7471C23.772 59.5735 23.5148 59.4867 23.1697 59.4867C22.812 59.4867 22.5315 59.565 22.3282 59.7217C22.125 59.8783 21.9821 60.0456 21.8995 60.2234L21.1882 59.9694C21.3153 59.673 21.4846 59.4422 21.6963 59.2771C21.9101 59.1099 22.143 58.9934 22.3949 58.9278C22.6489 58.8601 22.8988 58.8262 23.1443 58.8262C23.301 58.8262 23.4809 58.8453 23.6841 58.8834C23.8895 58.9193 24.0874 58.9945 24.278 59.1088C24.4706 59.2231 24.6304 59.3957 24.7575 59.6264C24.8845 59.8572 24.948 60.1662 24.948 60.5536V63.7672H24.1986V63.1067H24.1605C24.1097 63.2126 24.025 63.3258 23.9064 63.4465C23.7879 63.5672 23.6302 63.6698 23.4333 63.7545C23.2364 63.8392 22.9961 63.8815 22.7125 63.8815ZM22.8268 63.2083C23.1232 63.2083 23.373 63.1501 23.5762 63.0337C23.7815 62.9172 23.9361 62.7669 24.0398 62.5828C24.1456 62.3986 24.1986 62.2049 24.1986 62.0017V61.3158C24.1668 61.3539 24.097 61.3888 23.989 61.4205C23.8831 61.4502 23.7604 61.4766 23.6206 61.4999C23.483 61.5211 23.3486 61.5402 23.2174 61.5571C23.0882 61.5719 22.9834 61.5846 22.903 61.5952C22.7082 61.6206 22.5262 61.6619 22.3568 61.719C22.1896 61.7741 22.0541 61.8577 21.9503 61.9699C21.8487 62.08 21.7979 62.2303 21.7979 62.4208C21.7979 62.6812 21.8942 62.8781 22.0869 63.0115C22.2817 63.1427 22.5283 63.2083 22.8268 63.2083Z" fill="#101010"/>
<rect x="77.4987" y="60.5234" width="90.4144" height="2.9807" rx="1.49035" fill="#D9D9D9"/>
<rect x="77.4986" y="60.3248" width="56.6332" height="2.9807" rx="1.49035" fill="#010101"/>
<path d="M0.787513 78.4758V71.9725H2.98493C3.49512 71.9725 3.91216 72.0646 4.23606 72.2488C4.56207 72.4308 4.80341 72.6774 4.96006 72.9886C5.11672 73.2998 5.19505 73.647 5.19505 74.0302C5.19505 74.4134 5.11672 74.7616 4.96006 75.0749C4.80553 75.3882 4.56631 75.638 4.24241 75.8243C3.91851 76.0085 3.50359 76.1006 2.99763 76.1006H1.4226V75.402H2.97223C3.32153 75.402 3.60203 75.3417 3.81372 75.221C4.02542 75.1003 4.1789 74.9373 4.27417 74.732C4.37155 74.5245 4.42024 74.2906 4.42024 74.0302C4.42024 73.7698 4.37155 73.5369 4.27417 73.3316C4.1789 73.1262 4.02436 72.9654 3.81055 72.8489C3.59673 72.7304 3.31306 72.6711 2.95953 72.6711H1.57503V78.4758H0.787513ZM7.11144 75.5417V78.4758H6.36203V71.9725H7.11144V74.3604H7.17495C7.28926 74.1085 7.46074 73.9085 7.68937 73.7603C7.92012 73.61 8.22708 73.5348 8.61025 73.5348C8.94262 73.5348 9.2337 73.6015 9.4835 73.7349C9.73331 73.8661 9.92701 74.0683 10.0646 74.3414C10.2043 74.6124 10.2742 74.9574 10.2742 75.3766V78.4758H9.52478V75.4274C9.52478 75.04 9.42423 74.7404 9.22312 74.5287C9.02412 74.3149 8.74786 74.208 8.39432 74.208C8.14875 74.208 7.92859 74.2599 7.73383 74.3636C7.54118 74.4673 7.38876 74.6187 7.27656 74.8177C7.16648 75.0167 7.11144 75.258 7.11144 75.5417ZM13.6267 78.5774C13.1864 78.5774 12.8 78.4727 12.4676 78.2631C12.1374 78.0535 11.8791 77.7603 11.6928 77.3835C11.5087 77.0067 11.4166 76.5663 11.4166 76.0625C11.4166 75.5544 11.5087 75.1109 11.6928 74.732C11.8791 74.353 12.1374 74.0588 12.4676 73.8492C12.8 73.6396 13.1864 73.5348 13.6267 73.5348C14.067 73.5348 14.4523 73.6396 14.7825 73.8492C15.1149 74.0588 15.3732 74.353 15.5574 74.732C15.7437 75.1109 15.8368 75.5544 15.8368 76.0625C15.8368 76.5663 15.7437 77.0067 15.5574 77.3835C15.3732 77.7603 15.1149 78.0535 14.7825 78.2631C14.4523 78.4727 14.067 78.5774 13.6267 78.5774ZM13.6267 77.9042C13.9612 77.9042 14.2364 77.8185 14.4523 77.647C14.6682 77.4756 14.8281 77.2501 14.9318 76.9707C15.0355 76.6912 15.0874 76.3885 15.0874 76.0625C15.0874 75.7365 15.0355 75.4327 14.9318 75.1511C14.8281 74.8696 14.6682 74.642 14.4523 74.4684C14.2364 74.2948 13.9612 74.208 13.6267 74.208C13.2922 74.208 13.017 74.2948 12.8011 74.4684C12.5851 74.642 12.4253 74.8696 12.3216 75.1511C12.2178 75.4327 12.166 75.7365 12.166 76.0625C12.166 76.3885 12.2178 76.6912 12.3216 76.9707C12.4253 77.2501 12.5851 77.4756 12.8011 77.647C13.017 77.8185 13.2922 77.9042 13.6267 77.9042ZM19.102 73.5983V74.2334H16.5743V73.5983H19.102ZM17.311 72.4298H18.0604V77.0786C18.0604 77.2903 18.0911 77.4491 18.1525 77.5549C18.216 77.6587 18.2965 77.7285 18.3938 77.7645C18.4933 77.7984 18.5981 77.8153 18.7082 77.8153C18.7908 77.8153 18.8585 77.8111 18.9114 77.8026C18.9644 77.792 19.0067 77.7836 19.0385 77.7772L19.1909 78.4504C19.1401 78.4695 19.0692 78.4885 18.9781 78.5076C18.8871 78.5288 18.7717 78.5393 18.632 78.5393C18.4203 78.5393 18.2128 78.4938 18.0096 78.4028C17.8085 78.3118 17.6413 78.1731 17.5079 77.9868C17.3766 77.8005 17.311 77.5655 17.311 77.2819V72.4298ZM22.1583 78.5774C21.718 78.5774 21.3317 78.4727 20.9993 78.2631C20.6691 78.0535 20.4108 77.7603 20.2245 77.3835C20.0403 77.0067 19.9482 76.5663 19.9482 76.0625C19.9482 75.5544 20.0403 75.1109 20.2245 74.732C20.4108 74.353 20.6691 74.0588 20.9993 73.8492C21.3317 73.6396 21.718 73.5348 22.1583 73.5348C22.5987 73.5348 22.984 73.6396 23.3142 73.8492C23.6466 74.0588 23.9048 74.353 24.089 74.732C24.2753 75.1109 24.3685 75.5544 24.3685 76.0625C24.3685 76.5663 24.2753 77.0067 24.089 77.3835C23.9048 77.7603 23.6466 78.0535 23.3142 78.2631C22.984 78.4727 22.5987 78.5774 22.1583 78.5774ZM22.1583 77.9042C22.4928 77.9042 22.768 77.8185 22.984 77.647C23.1999 77.4756 23.3597 77.2501 23.4635 76.9707C23.5672 76.6912 23.6191 76.3885 23.6191 76.0625C23.6191 75.7365 23.5672 75.4327 23.4635 75.1511C23.3597 74.8696 23.1999 74.642 22.984 74.4684C22.768 74.2948 22.4928 74.208 22.1583 74.208C21.8239 74.208 21.5487 74.2948 21.3327 74.4684C21.1168 74.642 20.957 74.8696 20.8532 75.1511C20.7495 75.4327 20.6976 75.7365 20.6976 76.0625C20.6976 76.3885 20.7495 76.6912 20.8532 76.9707C20.957 77.2501 21.1168 77.4756 21.3327 77.647C21.5487 77.8185 21.8239 77.9042 22.1583 77.9042ZM28.9673 74.6907L28.2941 74.8812C28.2518 74.769 28.1893 74.66 28.1068 74.5541C28.0263 74.4462 27.9162 74.3573 27.7765 74.2874C27.6368 74.2175 27.4579 74.1826 27.2399 74.1826C26.9414 74.1826 26.6926 74.2514 26.4936 74.389C26.2968 74.5245 26.1983 74.697 26.1983 74.9066C26.1983 75.0929 26.2661 75.24 26.4015 75.348C26.537 75.456 26.7487 75.5459 27.0366 75.6179L27.7606 75.7957C28.1967 75.9016 28.5217 76.0635 28.7355 76.2816C28.9493 76.4975 29.0562 76.7759 29.0562 77.1167C29.0562 77.3962 28.9758 77.646 28.8149 77.8661C28.6561 78.0863 28.4338 78.2599 28.148 78.3869C27.8623 78.5139 27.5299 78.5774 27.151 78.5774C26.6535 78.5774 26.2417 78.4695 25.9157 78.2535C25.5897 78.0376 25.3833 77.7222 25.2965 77.3073L26.0078 77.1294C26.0755 77.3919 26.2036 77.5888 26.392 77.7201C26.5825 77.8513 26.8313 77.9169 27.1383 77.9169C27.4876 77.9169 27.7649 77.8429 27.9702 77.6947C28.1777 77.5444 28.2814 77.3644 28.2814 77.1548C28.2814 76.9855 28.2221 76.8436 28.1036 76.7293C27.985 76.6129 27.803 76.5261 27.5574 76.4689L26.7445 76.2784C26.2978 76.1726 25.9697 76.0085 25.7601 75.7862C25.5526 75.5618 25.4489 75.2813 25.4489 74.9447C25.4489 74.6695 25.5262 74.4261 25.6807 74.2144C25.8374 74.0027 26.0501 73.8365 26.319 73.7158C26.59 73.5952 26.8969 73.5348 27.2399 73.5348C27.7225 73.5348 28.1015 73.6407 28.3767 73.8524C28.654 74.0641 28.8509 74.3435 28.9673 74.6907ZM30.9337 75.5417V78.4758H30.1843V71.9725H30.9337V74.3604H30.9972C31.1115 74.1085 31.283 73.9085 31.5117 73.7603C31.7424 73.61 32.0494 73.5348 32.4325 73.5348C32.7649 73.5348 33.056 73.6015 33.3058 73.7349C33.5556 73.8661 33.7493 74.0683 33.8869 74.3414C34.0266 74.6124 34.0965 74.9574 34.0965 75.3766V78.4758H33.3471V75.4274C33.3471 75.04 33.2465 74.7404 33.0454 74.5287C32.8464 74.3149 32.5701 74.208 32.2166 74.208C31.971 74.208 31.7509 74.2599 31.5561 74.3636C31.3635 74.4673 31.211 74.6187 31.0988 74.8177C30.9888 75.0167 30.9337 75.258 30.9337 75.5417ZM37.449 78.5774C37.0086 78.5774 36.6223 78.4727 36.2899 78.2631C35.9597 78.0535 35.7014 77.7603 35.5151 77.3835C35.3309 77.0067 35.2388 76.5663 35.2388 76.0625C35.2388 75.5544 35.3309 75.1109 35.5151 74.732C35.7014 74.353 35.9597 74.0588 36.2899 73.8492C36.6223 73.6396 37.0086 73.5348 37.449 73.5348C37.8893 73.5348 38.2746 73.6396 38.6048 73.8492C38.9372 74.0588 39.1955 74.353 39.3796 74.732C39.5659 75.1109 39.6591 75.5544 39.6591 76.0625C39.6591 76.5663 39.5659 77.0067 39.3796 77.3835C39.1955 77.7603 38.9372 78.0535 38.6048 78.2631C38.2746 78.4727 37.8893 78.5774 37.449 78.5774ZM37.449 77.9042C37.7834 77.9042 38.0587 77.8185 38.2746 77.647C38.4905 77.4756 38.6503 77.2501 38.7541 76.9707C38.8578 76.6912 38.9097 76.3885 38.9097 76.0625C38.9097 75.7365 38.8578 75.4327 38.7541 75.1511C38.6503 74.8696 38.4905 74.642 38.2746 74.4684C38.0587 74.2948 37.7834 74.208 37.449 74.208C37.1145 74.208 36.8393 74.2948 36.6233 74.4684C36.4074 74.642 36.2476 74.8696 36.1438 75.1511C36.0401 75.4327 35.9883 75.7365 35.9883 76.0625C35.9883 76.3885 36.0401 76.6912 36.1438 76.9707C36.2476 77.2501 36.4074 77.4756 36.6233 77.647C36.8393 77.8185 37.1145 77.9042 37.449 77.9042ZM40.803 80.3049V73.5983H41.527V74.3731H41.616C41.671 74.2885 41.7472 74.1805 41.8446 74.0492C41.9441 73.9159 42.0859 73.7973 42.2701 73.6936C42.4564 73.5877 42.7083 73.5348 43.0259 73.5348C43.4366 73.5348 43.7986 73.6375 44.1119 73.8428C44.4252 74.0482 44.6697 74.3393 44.8454 74.7161C45.0211 75.0929 45.109 75.5375 45.109 76.0498C45.109 76.5663 45.0211 77.0141 44.8454 77.393C44.6697 77.7698 44.4262 78.062 44.115 78.2694C43.8038 78.4748 43.445 78.5774 43.0386 78.5774C42.7253 78.5774 42.4744 78.5256 42.286 78.4218C42.0976 78.316 41.9526 78.1964 41.8509 78.063C41.7493 77.9275 41.671 77.8153 41.616 77.7264H41.5524V80.3049H40.803ZM41.5397 76.0371C41.5397 76.4054 41.5937 76.7304 41.7017 77.0119C41.8097 77.2914 41.9674 77.5105 42.1748 77.6693C42.3823 77.8259 42.6363 77.9042 42.9369 77.9042C43.2503 77.9042 43.5117 77.8217 43.7213 77.6566C43.933 77.4893 44.0918 77.2649 44.1976 76.9834C44.3056 76.6997 44.3596 76.3843 44.3596 76.0371C44.3596 75.6941 44.3066 75.3851 44.2008 75.1098C44.097 74.8325 43.9393 74.6134 43.7276 74.4525C43.5181 74.2895 43.2545 74.208 42.9369 74.208C42.6321 74.208 42.376 74.2853 42.1685 74.4398C41.961 74.5922 41.8044 74.8061 41.6985 75.0813C41.5927 75.3544 41.5397 75.673 41.5397 76.0371Z" fill="#101010"/>
<rect x="77.4986" y="75.2321" width="90.4144" height="2.9807" rx="1.49035" fill="#D9D9D9"/>
<rect x="77.4987" y="75.4305" width="83.4595" height="2.9807" rx="1.49035" fill="#040404"/>
<path d="M1.57503 86.6811V93.1844H0.787513V86.6811H1.57503ZM3.80182 86.6811V93.1844H3.05241V86.6811H3.80182ZM5.92382 86.6811V93.1844H5.17441V86.6811H5.92382ZM10.3703 91.1903V88.3069H11.1197V93.1844H10.3703V92.3588H10.3194C10.2051 92.6065 10.0273 92.8172 9.78597 92.9907C9.54463 93.1622 9.23979 93.248 8.87143 93.248C8.56659 93.248 8.29562 93.1813 8.05852 93.0479C7.82142 92.9124 7.63512 92.7092 7.49964 92.4382C7.36415 92.1651 7.29641 91.8211 7.29641 91.4062V88.3069H8.04582V91.3554C8.04582 91.711 8.14531 91.9947 8.34431 92.2064C8.54542 92.4181 8.80157 92.524 9.11277 92.524C9.29906 92.524 9.48853 92.4763 9.68118 92.3811C9.87594 92.2858 10.0389 92.1397 10.1702 91.9428C10.3036 91.746 10.3703 91.4951 10.3703 91.1903ZM15.9471 89.3993L15.274 89.5898C15.2316 89.4776 15.1692 89.3686 15.0866 89.2628C15.0062 89.1548 14.8961 89.0659 14.7564 88.996C14.6166 88.9262 14.4377 88.8912 14.2197 88.8912C13.9212 88.8912 13.6725 88.96 13.4735 89.0976C13.2766 89.2331 13.1781 89.4057 13.1781 89.6152C13.1781 89.8015 13.2459 89.9487 13.3814 90.0566C13.5169 90.1646 13.7286 90.2546 14.0165 90.3265L14.7405 90.5044C15.1766 90.6102 15.5015 90.7722 15.7153 90.9902C15.9292 91.2061 16.0361 91.4845 16.0361 91.8254C16.0361 92.1048 15.9556 92.3546 15.7947 92.5748C15.636 92.7949 15.4137 92.9685 15.1279 93.0955C14.8421 93.2226 14.5097 93.2861 14.1308 93.2861C13.6333 93.2861 13.2215 93.1781 12.8955 92.9622C12.5695 92.7462 12.3631 92.4308 12.2763 92.0159L12.9876 91.8381C13.0554 92.1006 13.1834 92.2974 13.3719 92.4287C13.5624 92.5599 13.8111 92.6256 14.1181 92.6256C14.4674 92.6256 14.7447 92.5515 14.9501 92.4033C15.1575 92.253 15.2612 92.073 15.2612 91.8635C15.2612 91.6941 15.202 91.5523 15.0834 91.4379C14.9649 91.3215 14.7828 91.2347 14.5372 91.1776L13.7243 90.987C13.2776 90.8812 12.9495 90.7171 12.7399 90.4948C12.5325 90.2704 12.4287 89.9899 12.4287 89.6533C12.4287 89.3781 12.506 89.1347 12.6605 88.923C12.8172 88.7113 13.03 88.5451 13.2988 88.4244C13.5698 88.3038 13.8767 88.2434 14.2197 88.2434C14.7024 88.2434 15.0813 88.3493 15.3565 88.561C15.6338 88.7727 15.8307 89.0521 15.9471 89.3993ZM19.2853 88.3069V88.942H16.7577V88.3069H19.2853ZM17.4944 87.1384H18.2438V91.7872C18.2438 91.9989 18.2745 92.1577 18.3359 92.2636C18.3994 92.3673 18.4798 92.4372 18.5772 92.4731C18.6767 92.507 18.7815 92.524 18.8916 92.524C18.9742 92.524 19.0419 92.5197 19.0948 92.5113C19.1477 92.5007 19.1901 92.4922 19.2218 92.4858L19.3743 93.159C19.3235 93.1781 19.2525 93.1972 19.1615 93.2162C19.0705 93.2374 18.9551 93.248 18.8154 93.248C18.6037 93.248 18.3962 93.2024 18.193 93.1114C17.9919 93.0204 17.8246 92.8817 17.6913 92.6954C17.56 92.5091 17.4944 92.2742 17.4944 91.9905V87.1384ZM20.4126 93.1844V88.3069H21.1366V89.0437H21.1874C21.2764 88.8023 21.4372 88.6065 21.6701 88.4562C21.903 88.3059 22.1655 88.2307 22.4576 88.2307C22.5127 88.2307 22.5815 88.2318 22.664 88.2339C22.7466 88.236 22.809 88.2392 22.8514 88.2434V89.0055C22.826 88.9992 22.7678 88.9897 22.6767 88.977C22.5878 88.9621 22.4936 88.9547 22.3941 88.9547C22.157 88.9547 21.9453 89.0045 21.759 89.104C21.5749 89.2014 21.4288 89.3369 21.3208 89.5104C21.215 89.6819 21.162 89.8777 21.162 90.0979V93.1844H20.4126ZM25.175 93.2988C24.8659 93.2988 24.5855 93.2405 24.3335 93.1241C24.0816 93.0056 23.8816 92.8351 23.7334 92.6129C23.5852 92.3885 23.5111 92.1175 23.5111 91.7999C23.5111 91.5205 23.5661 91.294 23.6762 91.1204C23.7863 90.9447 23.9334 90.8071 24.1176 90.7076C24.3018 90.6081 24.505 90.534 24.7273 90.4853C24.9517 90.4345 25.1771 90.3943 25.4037 90.3646C25.7 90.3265 25.9403 90.298 26.1245 90.2789C26.3108 90.2577 26.4463 90.2228 26.5309 90.1741C26.6177 90.1254 26.6611 90.0407 26.6611 89.9201V89.8947C26.6611 89.5814 26.5754 89.3379 26.4039 89.1643C26.2346 88.9907 25.9774 88.9039 25.6323 88.9039C25.2745 88.9039 24.994 88.9823 24.7908 89.1389C24.5876 89.2956 24.4447 89.4628 24.3621 89.6406L23.6508 89.3866C23.7778 89.0902 23.9472 88.8595 24.1589 88.6944C24.3727 88.5271 24.6056 88.4107 24.8575 88.3451C25.1115 88.2773 25.3613 88.2434 25.6069 88.2434C25.7635 88.2434 25.9435 88.2625 26.1467 88.3006C26.3521 88.3366 26.55 88.4117 26.7405 88.5261C26.9332 88.6404 27.093 88.8129 27.22 89.0437C27.347 89.2744 27.4105 89.5835 27.4105 89.9709V93.1844H26.6611V92.524H26.623C26.5722 92.6298 26.4875 92.7431 26.369 92.8637C26.2504 92.9844 26.0927 93.0871 25.8959 93.1717C25.699 93.2564 25.4587 93.2988 25.175 93.2988ZM25.2893 92.6256C25.5857 92.6256 25.8355 92.5674 26.0388 92.4509C26.2441 92.3345 26.3986 92.1842 26.5024 92C26.6082 91.8158 26.6611 91.6221 26.6611 91.4189V90.733C26.6294 90.7711 26.5595 90.806 26.4516 90.8378C26.3457 90.8674 26.2229 90.8939 26.0832 90.9172C25.9456 90.9383 25.8112 90.9574 25.6799 90.9743C25.5508 90.9891 25.446 91.0019 25.3656 91.0124C25.1708 91.0378 24.9887 91.0791 24.8194 91.1363C24.6521 91.1913 24.5166 91.2749 24.4129 91.3871C24.3113 91.4972 24.2605 91.6475 24.2605 91.8381C24.2605 92.0984 24.3568 92.2953 24.5495 92.4287C24.7442 92.5599 24.9909 92.6256 25.2893 92.6256ZM30.8996 88.3069V88.942H28.3719V88.3069H30.8996ZM29.1086 87.1384H29.858V91.7872C29.858 91.9989 29.8887 92.1577 29.9501 92.2636C30.0136 92.3673 30.0941 92.4372 30.1915 92.4731C30.291 92.507 30.3957 92.524 30.5058 92.524C30.5884 92.524 30.6561 92.5197 30.7091 92.5113C30.762 92.5007 30.8043 92.4922 30.8361 92.4858L30.9885 93.159C30.9377 93.1781 30.8668 93.1972 30.7757 93.2162C30.6847 93.2374 30.5693 93.248 30.4296 93.248C30.2179 93.248 30.0105 93.2024 29.8072 93.1114C29.6061 93.0204 29.4389 92.8817 29.3055 92.6954C29.1743 92.5091 29.1086 92.2742 29.1086 91.9905V87.1384ZM33.956 93.2861C33.5156 93.2861 33.1293 93.1813 32.7969 92.9717C32.4667 92.7621 32.2084 92.4689 32.0221 92.0921C31.8379 91.7153 31.7458 91.2749 31.7458 90.7711C31.7458 90.263 31.8379 89.8195 32.0221 89.4406C32.2084 89.0616 32.4667 88.7674 32.7969 88.5578C33.1293 88.3482 33.5156 88.2434 33.956 88.2434C34.3963 88.2434 34.7816 88.3482 35.1118 88.5578C35.4442 88.7674 35.7025 89.0616 35.8866 89.4406C36.0729 89.8195 36.1661 90.263 36.1661 90.7711C36.1661 91.2749 36.0729 91.7153 35.8866 92.0921C35.7025 92.4689 35.4442 92.7621 35.1118 92.9717C34.7816 93.1813 34.3963 93.2861 33.956 93.2861ZM33.956 92.6129C34.2904 92.6129 34.5656 92.5271 34.7816 92.3557C34.9975 92.1842 35.1573 91.9587 35.2611 91.6793C35.3648 91.3998 35.4167 91.0971 35.4167 90.7711C35.4167 90.4451 35.3648 90.1413 35.2611 89.8597C35.1573 89.5782 34.9975 89.3506 34.7816 89.177C34.5656 89.0034 34.2904 88.9166 33.956 88.9166C33.6215 88.9166 33.3463 89.0034 33.1303 89.177C32.9144 89.3506 32.7546 89.5782 32.6508 89.8597C32.5471 90.1413 32.4952 90.4451 32.4952 90.7711C32.4952 91.0971 32.5471 91.3998 32.6508 91.6793C32.7546 91.9587 32.9144 92.1842 33.1303 92.3557C33.3463 92.5271 33.6215 92.6129 33.956 92.6129ZM37.31 93.1844V88.3069H38.034V89.0437H38.0848C38.1738 88.8023 38.3347 88.6065 38.5675 88.4562C38.8004 88.3059 39.0629 88.2307 39.355 88.2307C39.4101 88.2307 39.4789 88.2318 39.5614 88.2339C39.644 88.236 39.7064 88.2392 39.7488 88.2434V89.0055C39.7234 88.9992 39.6652 88.9897 39.5741 88.977C39.4852 88.9621 39.391 88.9547 39.2915 88.9547C39.0544 88.9547 38.8427 89.0045 38.6564 89.104C38.4723 89.2014 38.3262 89.3369 38.2182 89.5104C38.1124 89.6819 38.0594 89.8777 38.0594 90.0979V93.1844H37.31Z" fill="#101010"/>
<rect x="77.4986" y="89.9407" width="90.4144" height="2.9807" rx="1.49035" fill="#D9D9D9"/>
<rect x="77.4987" y="90.1393" width="83.4595" height="2.9807" rx="1.49035" fill="#040404"/>
<path d="M1.57503 101.39V107.893H0.787513V101.39H1.57503ZM3.80182 104.959V107.893H3.05241V103.016H3.77641V103.778H3.83992C3.95424 103.53 4.12783 103.331 4.3607 103.181C4.59356 103.028 4.89417 102.952 5.26253 102.952C5.59277 102.952 5.88174 103.02 6.12943 103.155C6.37711 103.289 6.56976 103.492 6.70736 103.765C6.84496 104.036 6.91376 104.379 6.91376 104.794V107.893H6.16436V104.845C6.16436 104.461 6.06486 104.163 5.86586 103.949C5.66687 103.733 5.39378 103.625 5.0466 103.625C4.80738 103.625 4.59356 103.677 4.40515 103.781C4.21886 103.885 4.07173 104.036 3.96376 104.235C3.8558 104.434 3.80182 104.675 3.80182 104.959ZM10.3917 107.893H8.38479V101.39H10.4806C11.1115 101.39 11.6513 101.52 12.1001 101.78C12.5489 102.039 12.8929 102.41 13.1321 102.895C13.3713 103.378 13.4909 103.955 13.4909 104.629C13.4909 105.306 13.3703 105.889 13.1289 106.378C12.8876 106.865 12.5362 107.24 12.0747 107.502C11.6132 107.763 11.0522 107.893 10.3917 107.893ZM9.17231 107.194H10.3409C10.8786 107.194 11.3242 107.091 11.6777 106.883C12.0313 106.676 12.2948 106.38 12.4684 105.997C12.642 105.614 12.7288 105.158 12.7288 104.629C12.7288 104.104 12.6431 103.652 12.4716 103.273C12.3001 102.892 12.044 102.6 11.7031 102.396C11.3623 102.191 10.9379 102.088 10.4298 102.088H9.17231V107.194ZM16.7553 107.995C16.2853 107.995 15.8799 107.891 15.5391 107.683C15.2004 107.474 14.9389 107.182 14.7548 106.807C14.5727 106.43 14.4817 105.992 14.4817 105.492C14.4817 104.993 14.5727 104.552 14.7548 104.171C14.9389 103.788 15.1951 103.49 15.5232 103.276C15.8535 103.06 16.2388 102.952 16.6791 102.952C16.9331 102.952 17.184 102.994 17.4317 103.079C17.6794 103.164 17.9048 103.301 18.108 103.492C18.3113 103.68 18.4732 103.93 18.5939 104.241C18.7146 104.552 18.7749 104.936 18.7749 105.391V105.708H15.0152V105.061H18.0128C18.0128 104.785 17.9577 104.54 17.8477 104.324C17.7397 104.108 17.5852 103.938 17.384 103.813C17.185 103.688 16.9501 103.625 16.6791 103.625C16.3806 103.625 16.1223 103.699 15.9043 103.848C15.6883 103.994 15.5222 104.184 15.4057 104.419C15.2893 104.654 15.2311 104.906 15.2311 105.175V105.607C15.2311 105.975 15.2946 106.287 15.4216 106.543C15.5507 106.798 15.7296 106.991 15.9583 107.125C16.1869 107.256 16.4526 107.321 16.7553 107.321C16.9522 107.321 17.13 107.294 17.2888 107.239C17.4497 107.182 17.5883 107.097 17.7048 106.985C17.8212 106.871 17.9112 106.729 17.9747 106.559L18.6987 106.763C18.6225 107.008 18.4944 107.224 18.3145 107.41C18.1345 107.595 17.9122 107.739 17.6476 107.842C17.383 107.944 17.0855 107.995 16.7553 107.995ZM23.3698 104.108L22.6966 104.298C22.6542 104.186 22.5918 104.077 22.5092 103.971C22.4288 103.863 22.3187 103.774 22.179 103.705C22.0393 103.635 21.8604 103.6 21.6423 103.6C21.3438 103.6 21.0951 103.669 20.8961 103.806C20.6992 103.942 20.6008 104.114 20.6008 104.324C20.6008 104.51 20.6685 104.657 20.804 104.765C20.9395 104.873 21.1512 104.963 21.4391 105.035L22.1631 105.213C22.5992 105.319 22.9242 105.481 23.138 105.699C23.3518 105.915 23.4587 106.193 23.4587 106.534C23.4587 106.813 23.3782 107.063 23.2174 107.283C23.0586 107.504 22.8363 107.677 22.5505 107.804C22.2647 107.931 21.9324 107.995 21.5534 107.995C21.0559 107.995 20.6442 107.887 20.3182 107.671C19.9922 107.455 19.7857 107.139 19.699 106.724L20.4103 106.547C20.478 106.809 20.6061 107.006 20.7945 107.137C20.985 107.269 21.2338 107.334 21.5407 107.334C21.89 107.334 22.1673 107.26 22.3727 107.112C22.5801 106.962 22.6839 106.782 22.6839 106.572C22.6839 106.403 22.6246 106.261 22.5061 106.147C22.3875 106.03 22.2054 105.943 21.9599 105.886L21.147 105.696C20.7003 105.59 20.3721 105.426 20.1626 105.203C19.9551 104.979 19.8514 104.699 19.8514 104.362C19.8514 104.087 19.9286 103.843 20.0832 103.632C20.2398 103.42 20.4526 103.254 20.7214 103.133C20.9924 103.012 21.2994 102.952 21.6423 102.952C22.125 102.952 22.5039 103.058 22.7791 103.27C23.0565 103.481 23.2533 103.761 23.3698 104.108ZM24.5868 107.893V103.016H25.3362V107.893H24.5868ZM24.9678 102.203C24.8218 102.203 24.6958 102.153 24.5899 102.053C24.4862 101.954 24.4344 101.834 24.4344 101.695C24.4344 101.555 24.4862 101.435 24.5899 101.336C24.6958 101.236 24.8218 101.187 24.9678 101.187C25.1139 101.187 25.2388 101.236 25.3425 101.336C25.4484 101.435 25.5013 101.555 25.5013 101.695C25.5013 101.834 25.4484 101.954 25.3425 102.053C25.2388 102.153 25.1139 102.203 24.9678 102.203ZM28.6776 109.824C28.3156 109.824 28.0044 109.777 27.744 109.684C27.4836 109.593 27.2666 109.472 27.093 109.322C26.9215 109.174 26.785 109.015 26.6834 108.846L27.2804 108.427C27.3481 108.515 27.4338 108.617 27.5376 108.731C27.6413 108.848 27.7831 108.948 27.9631 109.033C28.1451 109.12 28.3833 109.163 28.6776 109.163C29.0713 109.163 29.3963 109.068 29.6524 108.877C29.9086 108.687 30.0367 108.388 30.0367 107.982V106.991H29.9731C29.9181 107.08 29.8398 107.19 29.7382 107.321C29.6387 107.451 29.4947 107.566 29.3063 107.668C29.12 107.767 28.8681 107.817 28.5505 107.817C28.1568 107.817 27.8032 107.724 27.4899 107.537C27.1787 107.351 26.9321 107.08 26.7501 106.724C26.5701 106.369 26.4801 105.937 26.4801 105.429C26.4801 104.929 26.568 104.494 26.7437 104.124C26.9194 103.751 27.1639 103.463 27.4772 103.26C27.7905 103.055 28.1525 102.952 28.5632 102.952C28.8808 102.952 29.1327 103.005 29.319 103.111C29.5074 103.215 29.6514 103.333 29.7509 103.466C29.8525 103.598 29.9308 103.706 29.9858 103.79H30.0621V103.016H30.7861V108.033C30.7861 108.452 30.6908 108.793 30.5003 109.055C30.3119 109.32 30.0578 109.514 29.7382 109.636C29.4206 109.761 29.0671 109.824 28.6776 109.824ZM28.6522 107.144C28.9528 107.144 29.2068 107.075 29.4143 106.937C29.6217 106.8 29.7794 106.602 29.8874 106.343C29.9954 106.085 30.0494 105.776 30.0494 105.416C30.0494 105.065 29.9964 104.755 29.8906 104.486C29.7847 104.217 29.6281 104.006 29.4206 103.854C29.2131 103.701 28.957 103.625 28.6522 103.625C28.3346 103.625 28.07 103.706 27.8583 103.867C27.6487 104.027 27.491 104.243 27.3851 104.514C27.2814 104.785 27.2295 105.086 27.2295 105.416C27.2295 105.755 27.2825 106.054 27.3883 106.315C27.4963 106.573 27.6551 106.776 27.8646 106.925C28.0763 107.071 28.3388 107.144 28.6522 107.144ZM32.9073 104.959V107.893H32.1579V103.016H32.8819V103.778H32.9454C33.0597 103.53 33.2333 103.331 33.4661 103.181C33.699 103.028 33.9996 102.952 34.368 102.952C34.6982 102.952 34.9872 103.02 35.2349 103.155C35.4826 103.289 35.6752 103.492 35.8128 103.765C35.9504 104.036 36.0192 104.379 36.0192 104.794V107.893H35.2698V104.845C35.2698 104.461 35.1703 104.163 34.9713 103.949C34.7723 103.733 34.4992 103.625 34.152 103.625C33.9128 103.625 33.699 103.677 33.5106 103.781C33.3243 103.885 33.1772 104.036 33.0692 104.235C32.9612 104.434 32.9073 104.675 32.9073 104.959Z" fill="#101010"/>
<rect x="77.4986" y="104.649" width="90.4144" height="2.9807" rx="1.49035" fill="#D9D9D9"/>
<rect x="77.4987" y="104.848" width="86.4402" height="2.9807" rx="1.49035" fill="#040404"/>
<path d="M1.05425 122.602H0.228633L2.61658 116.098H3.42949L5.81744 122.602H4.99182L3.04844 117.127H2.99763L1.05425 122.602ZM1.3591 120.061H4.68698V120.76H1.3591V120.061ZM7.4782 119.667V122.602H6.72879V117.724H7.4528V118.486H7.51631C7.63062 118.238 7.80422 118.039 8.03708 117.889C8.26995 117.737 8.57056 117.661 8.93891 117.661C9.26916 117.661 9.55813 117.728 9.80581 117.864C10.0535 117.997 10.2461 118.2 10.3837 118.473C10.5213 118.744 10.5902 119.087 10.5902 119.502V122.602H9.84074V119.553C9.84074 119.17 9.74124 118.871 9.54225 118.658C9.34325 118.442 9.07016 118.334 8.72298 118.334C8.48376 118.334 8.26995 118.386 8.08154 118.489C7.89525 118.593 7.74812 118.744 7.64015 118.943C7.53218 119.142 7.4782 119.384 7.4782 119.667ZM11.9596 122.602V117.724H12.709V122.602H11.9596ZM12.3406 116.911C12.1946 116.911 12.0686 116.861 11.9627 116.762C11.859 116.662 11.8071 116.543 11.8071 116.403C11.8071 116.263 11.859 116.144 11.9627 116.044C12.0686 115.945 12.1946 115.895 12.3406 115.895C12.4867 115.895 12.6116 115.945 12.7153 116.044C12.8212 116.144 12.8741 116.263 12.8741 116.403C12.8741 116.543 12.8212 116.662 12.7153 116.762C12.6116 116.861 12.4867 116.911 12.3406 116.911ZM14.0816 122.602V117.724H14.8056V118.486H14.8691C14.9707 118.226 15.1348 118.024 15.3613 117.88C15.5878 117.734 15.8598 117.661 16.1774 117.661C16.4991 117.661 16.7669 117.734 16.9808 117.88C17.1967 118.024 17.365 118.226 17.4857 118.486H17.5365C17.6614 118.234 17.8487 118.034 18.0985 117.886C18.3483 117.736 18.6479 117.661 18.9972 117.661C19.4333 117.661 19.79 117.797 20.0673 118.07C20.3446 118.341 20.4833 118.763 20.4833 119.337V122.602H19.7339V119.337C19.7339 118.977 19.6354 118.72 19.4386 118.566C19.2417 118.411 19.0099 118.334 18.7431 118.334C18.4002 118.334 18.1345 118.437 17.9461 118.645C17.7577 118.85 17.6635 119.111 17.6635 119.426V122.602H16.9014V119.261C16.9014 118.984 16.8114 118.76 16.6315 118.591C16.4515 118.419 16.2197 118.334 15.936 118.334C15.7413 118.334 15.5592 118.386 15.3899 118.489C15.2226 118.593 15.0871 118.737 14.9834 118.921C14.8818 119.103 14.831 119.314 14.831 119.553V122.602H14.0816ZM23.2888 122.716C22.9797 122.716 22.6992 122.658 22.4473 122.541C22.1954 122.423 21.9953 122.252 21.8471 122.03C21.699 121.806 21.6249 121.535 21.6249 121.217C21.6249 120.938 21.6799 120.711 21.79 120.538C21.9001 120.362 22.0472 120.224 22.2314 120.125C22.4156 120.025 22.6188 119.951 22.8411 119.902C23.0655 119.852 23.2909 119.811 23.5174 119.782C23.8138 119.744 24.0541 119.715 24.2383 119.696C24.4246 119.675 24.56 119.64 24.6447 119.591C24.7315 119.543 24.7749 119.458 24.7749 119.337V119.312C24.7749 118.998 24.6892 118.755 24.5177 118.581C24.3483 118.408 24.0911 118.321 23.7461 118.321C23.3883 118.321 23.1078 118.399 22.9046 118.556C22.7013 118.713 22.5584 118.88 22.4759 119.058L21.7646 118.804C21.8916 118.507 22.061 118.277 22.2727 118.111C22.4865 117.944 22.7193 117.828 22.9713 117.762C23.2253 117.694 23.4751 117.661 23.7207 117.661C23.8773 117.661 24.0573 117.68 24.2605 117.718C24.4658 117.754 24.6638 117.829 24.8543 117.943C25.0469 118.057 25.2068 118.23 25.3338 118.461C25.4608 118.692 25.5243 119.001 25.5243 119.388V122.602H24.7749V121.941H24.7368C24.686 122.047 24.6013 122.16 24.4828 122.281C24.3642 122.402 24.2065 122.504 24.0096 122.589C23.8128 122.674 23.5725 122.716 23.2888 122.716ZM23.4031 122.043C23.6995 122.043 23.9493 121.984 24.1525 121.868C24.3579 121.752 24.5124 121.601 24.6161 121.417C24.722 121.233 24.7749 121.039 24.7749 120.836V120.15C24.7432 120.188 24.6733 120.223 24.5653 120.255C24.4595 120.285 24.3367 120.311 24.197 120.334C24.0594 120.355 23.925 120.375 23.7937 120.391C23.6646 120.406 23.5598 120.419 23.4793 120.43C23.2846 120.455 23.1025 120.496 22.9332 120.553C22.7659 120.608 22.6304 120.692 22.5267 120.804C22.4251 120.914 22.3743 121.065 22.3743 121.255C22.3743 121.516 22.4706 121.712 22.6632 121.846C22.858 121.977 23.1046 122.043 23.4031 122.043ZM29.0134 117.724V118.359H26.4857V117.724H29.0134ZM27.2224 116.555H27.9718V121.204C27.9718 121.416 28.0025 121.575 28.0639 121.681C28.1274 121.784 28.2079 121.854 28.3052 121.89C28.4047 121.924 28.5095 121.941 28.6196 121.941C28.7022 121.941 28.7699 121.937 28.8228 121.928C28.8758 121.918 28.9181 121.909 28.9499 121.903L29.1023 122.576C29.0515 122.595 28.9805 122.614 28.8895 122.633C28.7985 122.654 28.6831 122.665 28.5434 122.665C28.3317 122.665 28.1242 122.62 27.921 122.529C27.7199 122.437 27.5527 122.299 27.4193 122.113C27.288 121.926 27.2224 121.691 27.2224 121.408V116.555ZM32.1332 122.703C31.6633 122.703 31.2579 122.599 30.917 122.392C30.5783 122.182 30.3169 121.89 30.1327 121.516C29.9506 121.139 29.8596 120.701 29.8596 120.201C29.8596 119.701 29.9506 119.261 30.1327 118.88C30.3169 118.497 30.573 118.198 30.9012 117.984C31.2314 117.769 31.6167 117.661 32.057 117.661C32.3111 117.661 32.5619 117.703 32.8096 117.788C33.0573 117.872 33.2828 118.01 33.486 118.2C33.6892 118.389 33.8512 118.639 33.9718 118.95C34.0925 119.261 34.1528 119.644 34.1528 120.099V120.417H30.3931V119.769H33.3907C33.3907 119.494 33.3357 119.248 33.2256 119.032C33.1176 118.816 32.9631 118.646 32.762 118.521C32.563 118.396 32.328 118.334 32.057 118.334C31.7585 118.334 31.5003 118.408 31.2822 118.556C31.0663 118.702 30.9001 118.893 30.7837 119.128C30.6672 119.363 30.609 119.615 30.609 119.883V120.315C30.609 120.684 30.6725 120.996 30.7996 121.252C30.9287 121.506 31.1076 121.7 31.3362 121.833C31.5648 121.964 31.8305 122.03 32.1332 122.03C32.3301 122.03 32.508 122.002 32.6667 121.947C32.8276 121.89 32.9663 121.806 33.0827 121.693C33.1991 121.579 33.2891 121.437 33.3526 121.268L34.0766 121.471C34.0004 121.717 33.8723 121.933 33.6924 122.119C33.5125 122.303 33.2902 122.447 33.0256 122.551C32.7609 122.652 32.4635 122.703 32.1332 122.703Z" fill="#101010"/>
<rect x="77.4986" y="119.358" width="90.4144" height="2.9807" rx="1.49035" fill="#D9D9D9"/>
<rect x="77.4986" y="119.358" width="80.4788" height="2.9807" rx="1.49035" fill="#040404"/>
<path d="M2.87061 137.399C2.45145 137.399 2.07781 137.327 1.74968 137.183C1.42366 137.039 1.16433 136.839 0.97169 136.583C0.781163 136.325 0.677431 136.025 0.660495 135.684H1.46071C1.47765 135.894 1.54962 136.075 1.67664 136.227C1.80366 136.378 1.96984 136.494 2.17519 136.577C2.38053 136.659 2.60811 136.7 2.85791 136.7C3.13735 136.7 3.38504 136.652 3.60097 136.554C3.8169 136.457 3.98626 136.321 4.10904 136.148C4.23183 135.974 4.29322 135.773 4.29322 135.545C4.29322 135.305 4.23394 135.095 4.11539 134.913C3.99684 134.728 3.82325 134.584 3.59462 134.481C3.36598 134.377 3.08654 134.325 2.7563 134.325H2.23552V133.627H2.7563C3.01457 133.627 3.24108 133.58 3.43585 133.487C3.63272 133.394 3.7862 133.262 3.89629 133.093C4.00849 132.924 4.06459 132.725 4.06459 132.496C4.06459 132.276 4.0159 132.084 3.91851 131.921C3.82113 131.758 3.68353 131.631 3.50571 131.54C3.33 131.449 3.12253 131.404 2.88332 131.404C2.65892 131.404 2.44722 131.445 2.24822 131.528C2.05135 131.608 1.89046 131.725 1.76555 131.88C1.64065 132.032 1.57291 132.217 1.56233 132.433H0.800215C0.812917 132.092 0.91559 131.793 1.10823 131.537C1.30088 131.279 1.5528 131.078 1.86399 130.934C2.17731 130.79 2.52131 130.718 2.89602 130.718C3.29824 130.718 3.64331 130.799 3.93122 130.962C4.21912 131.123 4.44035 131.336 4.59489 131.601C4.74943 131.865 4.8267 132.151 4.8267 132.458C4.8267 132.824 4.73037 133.136 4.53773 133.395C4.3472 133.653 4.08787 133.832 3.75974 133.931V133.982C4.17043 134.05 4.49116 134.225 4.72191 134.506C4.95266 134.786 5.06803 135.132 5.06803 135.545C5.06803 135.898 4.97171 136.216 4.77906 136.497C4.58854 136.777 4.32815 136.997 3.9979 137.158C3.66765 137.319 3.29189 137.399 2.87061 137.399ZM8.488 137.31H6.48111V130.807H8.57691C9.20777 130.807 9.7476 130.937 10.1964 131.197C10.6452 131.456 10.9892 131.827 11.2284 132.312C11.4676 132.795 11.5872 133.372 11.5872 134.046C11.5872 134.723 11.4666 135.306 11.2252 135.795C10.9839 136.282 10.6325 136.657 10.171 136.919C9.70949 137.18 9.14849 137.31 8.488 137.31ZM7.26862 136.611H8.43719C8.9749 136.611 9.42052 136.508 9.77406 136.3C10.1276 136.093 10.3912 135.797 10.5647 135.414C10.7383 135.031 10.8251 134.575 10.8251 134.046C10.8251 133.521 10.7394 133.069 10.5679 132.69C10.3964 132.309 10.1403 132.017 9.79946 131.813C9.45863 131.608 9.03418 131.505 8.5261 131.505H7.26862V136.611ZM18.9797 132.433C18.9416 132.111 18.7871 131.861 18.5161 131.683C18.2451 131.505 17.9128 131.416 17.519 131.416C17.2311 131.416 16.9792 131.463 16.7632 131.556C16.5494 131.649 16.3822 131.777 16.2615 131.94C16.143 132.103 16.0837 132.289 16.0837 132.496C16.0837 132.67 16.125 132.819 16.2075 132.944C16.2922 133.067 16.4002 133.169 16.5314 133.252C16.6627 133.332 16.8003 133.399 16.9442 133.452C17.0882 133.503 17.2205 133.544 17.3412 133.576L18.0017 133.754C18.171 133.798 18.3594 133.859 18.5669 133.938C18.7765 134.016 18.9765 134.123 19.1671 134.258C19.3597 134.392 19.5185 134.563 19.6434 134.773C19.7683 134.982 19.8307 135.24 19.8307 135.545C19.8307 135.896 19.7386 136.213 19.5545 136.497C19.3724 136.781 19.1057 137.006 18.7543 137.174C18.405 137.341 17.9805 137.424 17.4809 137.424C17.0152 137.424 16.6119 137.349 16.271 137.199C15.9323 137.049 15.6656 136.839 15.4708 136.57C15.2782 136.301 15.1692 135.989 15.1438 135.633H15.9567C15.9778 135.879 16.0604 136.082 16.2044 136.243C16.3504 136.402 16.5346 136.52 16.7569 136.599C16.9813 136.675 17.2226 136.713 17.4809 136.713C17.7815 136.713 18.0514 136.664 18.2906 136.567C18.5299 136.468 18.7193 136.33 18.859 136.154C18.9988 135.976 19.0686 135.769 19.0686 135.532C19.0686 135.316 19.0083 135.14 18.8876 135.005C18.767 134.869 18.6082 134.759 18.4113 134.674C18.2144 134.59 18.0017 134.516 17.773 134.452L16.9728 134.224C16.4647 134.077 16.0625 133.869 15.7661 133.598C15.4698 133.327 15.3216 132.972 15.3216 132.534C15.3216 132.17 15.42 131.853 15.6169 131.582C15.8159 131.308 16.0826 131.097 16.4171 130.946C16.7537 130.794 17.1295 130.718 17.5444 130.718C17.9636 130.718 18.3361 130.793 18.6622 130.943C18.9882 131.091 19.2464 131.295 19.437 131.553C19.6296 131.811 19.7312 132.104 19.7418 132.433H18.9797ZM23.1451 132.433V133.068H20.6175V132.433H23.1451ZM21.3542 131.264H22.1036V135.913C22.1036 136.125 22.1343 136.283 22.1957 136.389C22.2592 136.493 22.3396 136.563 22.437 136.599C22.5365 136.633 22.6413 136.65 22.7514 136.65C22.8339 136.65 22.9017 136.645 22.9546 136.637C23.0075 136.626 23.0499 136.618 23.0816 136.611L23.234 137.285C23.1832 137.304 23.1123 137.323 23.0213 137.342C22.9302 137.363 22.8149 137.374 22.6751 137.374C22.4635 137.374 22.256 137.328 22.0528 137.237C21.8516 137.146 21.6844 137.007 21.551 136.821C21.4198 136.635 21.3542 136.4 21.3542 136.116V131.264ZM27.3462 135.316V132.433H28.0957V137.31H27.3462V136.484H27.2954C27.1811 136.732 27.0033 136.943 26.762 137.116C26.5206 137.288 26.2158 137.374 25.8474 137.374C25.5426 137.374 25.2716 137.307 25.0345 137.174C24.7974 137.038 24.6111 136.835 24.4756 136.564C24.3401 136.291 24.2724 135.947 24.2724 135.532V132.433H25.0218V135.481C25.0218 135.837 25.1213 136.12 25.3203 136.332C25.5214 136.544 25.7776 136.65 26.0888 136.65C26.2751 136.65 26.4645 136.602 26.6572 136.507C26.8519 136.411 27.0149 136.265 27.1462 136.068C27.2796 135.872 27.3462 135.621 27.3462 135.316ZM31.31 137.412C30.9036 137.412 30.5447 137.309 30.2335 137.104C29.9223 136.896 29.6789 136.604 29.5032 136.227C29.3275 135.848 29.2396 135.401 29.2396 134.884C29.2396 134.372 29.3275 133.927 29.5032 133.55C29.6789 133.173 29.9234 132.882 30.2367 132.677C30.55 132.472 30.912 132.369 31.3227 132.369C31.6403 132.369 31.8911 132.422 32.0753 132.528C32.2616 132.632 32.4034 132.75 32.5008 132.883C32.6003 133.015 32.6776 133.123 32.7326 133.207H32.7961V130.807H33.5455V137.31H32.8215V136.561H32.7326C32.6776 136.65 32.5992 136.762 32.4976 136.897C32.396 137.031 32.251 137.15 32.0626 137.256C31.8742 137.36 31.6233 137.412 31.31 137.412ZM31.4116 136.738C31.7122 136.738 31.9663 136.66 32.1737 136.503C32.3812 136.345 32.5389 136.126 32.6469 135.846C32.7548 135.565 32.8088 135.24 32.8088 134.871C32.8088 134.507 32.7559 134.189 32.6501 133.915C32.5442 133.64 32.3875 133.426 32.1801 133.274C31.9726 133.12 31.7165 133.042 31.4116 133.042C31.0941 133.042 30.8295 133.124 30.6178 133.287C30.4082 133.448 30.2505 133.667 30.1446 133.944C30.0409 134.219 29.989 134.528 29.989 134.871C29.989 135.218 30.0419 135.534 30.1478 135.818C30.2558 136.099 30.4145 136.324 30.6241 136.491C30.8358 136.656 31.0983 136.738 31.4116 136.738ZM35.0221 137.31V132.433H35.7715V137.31H35.0221ZM35.4032 131.62C35.2571 131.62 35.1311 131.57 35.0253 131.47C34.9216 131.371 34.8697 131.251 34.8697 131.112C34.8697 130.972 34.9216 130.852 35.0253 130.753C35.1311 130.653 35.2571 130.603 35.4032 130.603C35.5492 130.603 35.6741 130.653 35.7779 130.753C35.8837 130.852 35.9367 130.972 35.9367 131.112C35.9367 131.251 35.8837 131.371 35.7779 131.47C35.6741 131.57 35.5492 131.62 35.4032 131.62ZM39.1256 137.412C38.6853 137.412 38.2989 137.307 37.9666 137.097C37.6363 136.888 37.378 136.595 37.1918 136.218C37.0076 135.841 36.9155 135.401 36.9155 134.897C36.9155 134.389 37.0076 133.945 37.1918 133.566C37.378 133.187 37.6363 132.893 37.9666 132.683C38.2989 132.474 38.6853 132.369 39.1256 132.369C39.5659 132.369 39.9512 132.474 40.2815 132.683C40.6138 132.893 40.8721 133.187 41.0563 133.566C41.2426 133.945 41.3357 134.389 41.3357 134.897C41.3357 135.401 41.2426 135.841 41.0563 136.218C40.8721 136.595 40.6138 136.888 40.2815 137.097C39.9512 137.307 39.5659 137.412 39.1256 137.412ZM39.1256 136.738C39.4601 136.738 39.7353 136.653 39.9512 136.481C40.1672 136.31 40.327 136.084 40.4307 135.805C40.5345 135.525 40.5863 135.223 40.5863 134.897C40.5863 134.571 40.5345 134.267 40.4307 133.985C40.327 133.704 40.1672 133.476 39.9512 133.303C39.7353 133.129 39.4601 133.042 39.1256 133.042C38.7911 133.042 38.5159 133.129 38.3 133.303C38.0841 133.476 37.9242 133.704 37.8205 133.985C37.7168 134.267 37.6649 134.571 37.6649 134.897C37.6649 135.223 37.7168 135.525 37.8205 135.805C37.9242 136.084 38.0841 136.31 38.3 136.481C38.5159 136.653 38.7911 136.738 39.1256 136.738ZM45.0963 130.807H46.0362L48.2463 136.205H48.3225L50.5326 130.807H51.4726V137.31H50.7359V132.369H50.6724L48.6401 137.31H47.9288L45.8965 132.369H45.833V137.31H45.0963V130.807ZM54.3853 137.424C54.0762 137.424 53.7957 137.366 53.5438 137.25C53.2919 137.131 53.0918 136.961 52.9436 136.738C52.7954 136.514 52.7213 136.243 52.7213 135.926C52.7213 135.646 52.7764 135.42 52.8865 135.246C52.9965 135.07 53.1437 134.933 53.3278 134.833C53.512 134.734 53.7152 134.66 53.9375 134.611C54.1619 134.56 54.3874 134.52 54.6139 134.49C54.9103 134.452 55.1506 134.424 55.3347 134.405C55.521 134.383 55.6565 134.348 55.7412 134.3C55.828 134.251 55.8714 134.166 55.8714 134.046V134.02C55.8714 133.707 55.7856 133.464 55.6142 133.29C55.4448 133.116 55.1876 133.03 54.8425 133.03C54.4848 133.03 54.2043 133.108 54.001 133.265C53.7978 133.421 53.6549 133.588 53.5723 133.766L52.861 133.512C52.9881 133.216 53.1574 132.985 53.3691 132.82C53.5829 132.653 53.8158 132.536 54.0677 132.471C54.3218 132.403 54.5716 132.369 54.8171 132.369C54.9738 132.369 55.1537 132.388 55.357 132.426C55.5623 132.462 55.7602 132.537 55.9508 132.652C56.1434 132.766 56.3032 132.939 56.4303 133.169C56.5573 133.4 56.6208 133.709 56.6208 134.096V137.31H55.8714V136.65H55.8333C55.7825 136.755 55.6978 136.869 55.5792 136.989C55.4607 137.11 55.303 137.213 55.1061 137.297C54.9092 137.382 54.6689 137.424 54.3853 137.424ZM54.4996 136.751C54.796 136.751 55.0458 136.693 55.249 136.577C55.4543 136.46 55.6089 136.31 55.7126 136.126C55.8185 135.941 55.8714 135.748 55.8714 135.545V134.859C55.8396 134.897 55.7698 134.932 55.6618 134.963C55.556 134.993 55.4332 135.019 55.2934 135.043C55.1558 135.064 55.0214 135.083 54.8902 135.1C54.761 135.115 54.6562 135.127 54.5758 135.138C54.381 135.163 54.199 135.205 54.0296 135.262C53.8624 135.317 53.7269 135.401 53.6232 135.513C53.5215 135.623 53.4707 135.773 53.4707 135.964C53.4707 136.224 53.5671 136.421 53.7597 136.554C53.9545 136.686 54.2011 136.751 54.4996 136.751ZM58.5475 132.433L59.7161 134.427L60.8846 132.433H61.7484L60.1733 134.871L61.7484 137.31H60.8846L59.7161 135.417L58.5475 137.31H57.6838L59.2334 134.871L57.6838 132.433H58.5475Z" fill="#101010"/>
<rect x="77.4986" y="134.066" width="90.4144" height="2.9807" rx="1.49035" fill="#D9D9D9"/>
<rect x="77.4987" y="134.265" width="56.6332" height="2.9807" rx="1.49035" fill="#040404"/>
<path d="M0.787513 152.019V145.515H3.06114C3.51417 145.515 3.88782 145.594 4.18208 145.75C4.47634 145.905 4.69544 146.113 4.8394 146.376C4.98335 146.636 5.05533 146.925 5.05533 147.243C5.05533 147.522 5.00558 147.753 4.90608 147.935C4.8087 148.117 4.67957 148.261 4.51868 148.367C4.3599 148.473 4.18737 148.551 4.00108 148.602V148.665C4.20007 148.678 4.40013 148.748 4.60124 148.875C4.80235 149.002 4.97065 149.184 5.10614 149.421C5.24162 149.658 5.30936 149.948 5.30936 150.291C5.30936 150.617 5.23527 150.91 5.08708 151.171C4.9389 151.431 4.70497 151.638 4.38531 151.79C4.06564 151.942 3.64966 152.019 3.13735 152.019H0.787513ZM1.57503 151.32H3.13735C3.65178 151.32 4.01695 151.221 4.23288 151.022C4.45093 150.82 4.55996 150.577 4.55996 150.291C4.55996 150.071 4.50386 149.868 4.39166 149.682C4.27946 149.493 4.11963 149.343 3.91216 149.231C3.7047 149.116 3.45913 149.059 3.17546 149.059H1.57503V151.32ZM1.57503 148.373H3.03574C3.27284 148.373 3.48665 148.327 3.67718 148.234C3.86982 148.14 4.02225 148.009 4.13445 147.84C4.24876 147.67 4.30592 147.471 4.30592 147.243C4.30592 146.957 4.20642 146.715 4.00743 146.516C3.80843 146.314 3.493 146.214 3.06114 146.214H1.57503V148.373ZM7.25116 145.515V152.019H6.50175V145.515H7.25116ZM10.6687 152.12C10.1988 152.12 9.79338 152.017 9.45254 151.809C9.11383 151.6 8.85238 151.307 8.66821 150.933C8.48615 150.556 8.39512 150.118 8.39512 149.618C8.39512 149.118 8.48615 148.678 8.66821 148.297C8.85238 147.914 9.10854 147.615 9.43667 147.402C9.76691 147.186 10.1522 147.078 10.5925 147.078C10.8466 147.078 11.0974 147.12 11.3451 147.205C11.5928 147.289 11.8183 147.427 12.0215 147.617C12.2247 147.806 12.3867 148.056 12.5073 148.367C12.628 148.678 12.6883 149.061 12.6883 149.516V149.834H8.92859V149.186H11.9262C11.9262 148.911 11.8712 148.665 11.7611 148.449C11.6531 148.234 11.4986 148.063 11.2975 147.938C11.0985 147.813 10.8635 147.751 10.5925 147.751C10.294 147.751 10.0358 147.825 9.81772 147.973C9.60179 148.119 9.43561 148.31 9.31917 148.545C9.20274 148.78 9.14452 149.032 9.14452 149.3V149.732C9.14452 150.101 9.20803 150.413 9.33505 150.669C9.46419 150.923 9.64307 151.117 9.8717 151.25C10.1003 151.381 10.366 151.447 10.6687 151.447C10.8656 151.447 11.0434 151.42 11.2022 151.365C11.3631 151.307 11.5018 151.223 11.6182 151.11C11.7346 150.996 11.8246 150.854 11.8881 150.685L12.6121 150.888C12.5359 151.134 12.4078 151.35 12.2279 151.536C12.048 151.72 11.8257 151.864 11.561 151.968C11.2964 152.069 10.999 152.12 10.6687 152.12ZM14.5777 149.085V152.019H13.8283V147.141H14.5523V147.903H14.6158C14.7302 147.656 14.9037 147.457 15.1366 147.306C15.3695 147.154 15.6701 147.078 16.0384 147.078C16.3687 147.078 16.6577 147.145 16.9053 147.281C17.153 147.414 17.3457 147.617 17.4833 147.891C17.6209 148.162 17.6897 148.505 17.6897 148.919V152.019H16.9403V148.97C16.9403 148.587 16.8408 148.289 16.6418 148.075C16.4428 147.859 16.1697 147.751 15.8225 147.751C15.5833 147.751 15.3695 147.803 15.1811 147.906C14.9948 148.01 14.8476 148.162 14.7397 148.361C14.6317 148.56 14.5777 148.801 14.5777 149.085ZM20.9009 152.12C20.4944 152.12 20.1356 152.018 19.8244 151.812C19.5132 151.605 19.2697 151.313 19.094 150.936C18.9183 150.557 18.8305 150.109 18.8305 149.593C18.8305 149.08 18.9183 148.636 19.094 148.259C19.2697 147.882 19.5142 147.591 19.8276 147.386C20.1409 147.18 20.5029 147.078 20.9136 147.078C21.2311 147.078 21.482 147.131 21.6661 147.236C21.8524 147.34 21.9943 147.459 22.0917 147.592C22.1912 147.723 22.2684 147.831 22.3235 147.916H22.387V145.515H23.1364V152.019H22.4124V151.269H22.3235C22.2684 151.358 22.1901 151.47 22.0885 151.606C21.9869 151.739 21.8419 151.859 21.6534 151.965C21.465 152.068 21.2142 152.12 20.9009 152.12ZM21.0025 151.447C21.3031 151.447 21.5571 151.369 21.7646 151.212C21.972 151.053 22.1298 150.834 22.2377 150.555C22.3457 150.273 22.3997 149.948 22.3997 149.58C22.3997 149.216 22.3468 148.897 22.2409 148.624C22.1351 148.349 21.9784 148.135 21.7709 147.983C21.5635 147.828 21.3073 147.751 21.0025 147.751C20.6849 147.751 20.4203 147.832 20.2086 147.995C19.999 148.156 19.8413 148.375 19.7355 148.653C19.6317 148.928 19.5799 149.237 19.5799 149.58C19.5799 149.927 19.6328 150.243 19.7386 150.526C19.8466 150.808 20.0054 151.032 20.215 151.199C20.4267 151.365 20.6892 151.447 21.0025 151.447ZM26.658 152.12C26.188 152.12 25.7826 152.017 25.4418 151.809C25.103 151.6 24.8416 151.307 24.6574 150.933C24.4754 150.556 24.3843 150.118 24.3843 149.618C24.3843 149.118 24.4754 148.678 24.6574 148.297C24.8416 147.914 25.0978 147.615 25.4259 147.402C25.7561 147.186 26.1414 147.078 26.5818 147.078C26.8358 147.078 27.0867 147.12 27.3343 147.205C27.582 147.289 27.8075 147.427 28.0107 147.617C28.2139 147.806 28.3759 148.056 28.4966 148.367C28.6172 148.678 28.6776 149.061 28.6776 149.516V149.834H24.9178V149.186H27.9154C27.9154 148.911 27.8604 148.665 27.7503 148.449C27.6424 148.234 27.4878 148.063 27.2867 147.938C27.0877 147.813 26.8527 147.751 26.5818 147.751C26.2833 147.751 26.025 147.825 25.8069 147.973C25.591 148.119 25.4248 148.31 25.3084 148.545C25.192 148.78 25.1337 149.032 25.1337 149.3V149.732C25.1337 150.101 25.1973 150.413 25.3243 150.669C25.4534 150.923 25.6323 151.117 25.8609 151.25C26.0896 151.381 26.3552 151.447 26.658 151.447C26.8548 151.447 27.0327 151.42 27.1914 151.365C27.3523 151.307 27.491 151.223 27.6074 151.11C27.7239 150.996 27.8138 150.854 27.8773 150.685L28.6013 150.888C28.5251 151.134 28.3971 151.35 28.2171 151.536C28.0372 151.72 27.8149 151.864 27.5503 151.968C27.2856 152.069 26.9882 152.12 26.658 152.12ZM29.8175 152.019V147.141H30.5415V147.878H30.5924C30.6813 147.637 30.8422 147.441 31.075 147.29C31.3079 147.14 31.5704 147.065 31.8625 147.065C31.9176 147.065 31.9864 147.066 32.0689 147.068C32.1515 147.07 32.214 147.073 32.2563 147.078V147.84C32.2309 147.833 32.1727 147.824 32.0816 147.811C31.9927 147.796 31.8985 147.789 31.799 147.789C31.5619 147.789 31.3502 147.839 31.1639 147.938C30.9798 148.036 30.8337 148.171 30.7257 148.345C30.6199 148.516 30.567 148.712 30.567 148.932V152.019H29.8175Z" fill="#101010"/>
<rect x="77.4986" y="148.775" width="90.4144" height="2.9807" rx="1.49035" fill="#D9D9D9"/>
<rect x="77.4987" y="148.973" width="71.5367" height="2.9807" rx="1.49035" fill="#040404"/>
<path d="M6.02067 162.256H5.23315C5.18658 162.03 5.10508 161.831 4.98864 161.659C4.87433 161.488 4.73461 161.344 4.56948 161.227C4.40648 161.109 4.22548 161.02 4.02648 160.961C3.82748 160.901 3.62002 160.872 3.40409 160.872C3.01033 160.872 2.65362 160.971 2.33396 161.17C2.01642 161.369 1.76344 161.662 1.57503 162.05C1.38873 162.437 1.29559 162.913 1.29559 163.476C1.29559 164.039 1.38873 164.514 1.57503 164.901C1.76344 165.289 2.01642 165.582 2.33396 165.781C2.65362 165.98 3.01033 166.08 3.40409 166.08C3.62002 166.08 3.82748 166.05 4.02648 165.991C4.22548 165.931 4.40648 165.843 4.56948 165.727C4.73461 165.608 4.87433 165.463 4.98864 165.292C5.10508 165.118 5.18658 164.919 5.23315 164.695H6.02067C5.96139 165.027 5.85343 165.325 5.69677 165.587C5.54012 165.85 5.34535 166.073 5.11249 166.257C4.87962 166.439 4.61817 166.578 4.32815 166.673C4.04024 166.769 3.73222 166.816 3.40409 166.816C2.84944 166.816 2.35619 166.681 1.92433 166.41C1.49247 166.139 1.15269 165.753 0.905005 165.254C0.65732 164.754 0.533477 164.162 0.533477 163.476C0.533477 162.79 0.65732 162.197 0.905005 161.697C1.15269 161.198 1.49247 160.812 1.92433 160.542C2.35619 160.271 2.84944 160.135 3.40409 160.135C3.73222 160.135 4.04024 160.183 4.32815 160.278C4.61817 160.373 4.87962 160.513 5.11249 160.697C5.34535 160.879 5.54012 161.101 5.69677 161.364C5.85343 161.624 5.96139 161.922 6.02067 162.256ZM7.29323 160.224H8.23317L10.4433 165.622H10.5195L12.7296 160.224H13.6696V166.727H12.9328V161.786H12.8693L10.837 166.727H10.1257L8.09345 161.786H8.02994V166.727H7.29323V160.224ZM18.8051 161.85C18.767 161.528 18.6124 161.278 18.3414 161.1C18.0705 160.923 17.7381 160.834 17.3443 160.834C17.0564 160.834 16.8045 160.88 16.5886 160.973C16.3748 161.067 16.2075 161.195 16.0869 161.358C15.9683 161.521 15.909 161.706 15.909 161.913C15.909 162.087 15.9503 162.236 16.0329 162.361C16.1176 162.484 16.2255 162.586 16.3568 162.669C16.488 162.75 16.6256 162.816 16.7696 162.869C16.9135 162.92 17.0459 162.961 17.1665 162.993L17.827 163.171C17.9964 163.215 18.1848 163.277 18.3922 163.355C18.6018 163.433 18.8019 163.54 18.9924 163.676C19.1851 163.809 19.3438 163.981 19.4687 164.19C19.5936 164.4 19.6561 164.657 19.6561 164.962C19.6561 165.313 19.564 165.631 19.3798 165.914C19.1978 166.198 18.931 166.424 18.5796 166.591C18.2303 166.758 17.8058 166.842 17.3062 166.842C16.8405 166.842 16.4372 166.766 16.0964 166.616C15.7577 166.466 15.4909 166.256 15.2962 165.987C15.1035 165.719 14.9945 165.406 14.9691 165.051H15.782C15.8032 165.296 15.8858 165.499 16.0297 165.66C16.1758 165.819 16.36 165.938 16.5822 166.016C16.8066 166.092 17.048 166.13 17.3062 166.13C17.6069 166.13 17.8768 166.082 18.116 165.984C18.3552 165.885 18.5447 165.747 18.6844 165.571C18.8241 165.394 18.894 165.186 18.894 164.949C18.894 164.733 18.8336 164.557 18.713 164.422C18.5923 164.286 18.4335 164.176 18.2367 164.092C18.0398 164.007 17.827 163.933 17.5984 163.869L16.7982 163.641C16.2901 163.495 15.8879 163.286 15.5915 163.015C15.2951 162.744 15.1469 162.39 15.1469 161.951C15.1469 161.587 15.2454 161.27 15.4422 160.999C15.6412 160.726 15.908 160.514 16.2425 160.364C16.5791 160.211 16.9548 160.135 17.3698 160.135C17.7889 160.135 18.1615 160.21 18.4875 160.361C18.8135 160.509 19.0718 160.712 19.2623 160.97C19.455 161.228 19.5566 161.522 19.5672 161.85H18.8051ZM24.6471 166.727L22.8688 160.224H23.6691L25.0282 165.521H25.0917L26.4762 160.224H27.3653L28.7498 165.521H28.8133L30.1724 160.224H30.9726L29.1944 166.727H28.3814L26.9461 161.545H26.8953L25.46 166.727H24.6471ZM33.3796 166.829C32.9393 166.829 32.5529 166.724 32.2206 166.515C31.8903 166.305 31.6321 166.012 31.4458 165.635C31.2616 165.258 31.1695 164.818 31.1695 164.314C31.1695 163.806 31.2616 163.362 31.4458 162.983C31.6321 162.604 31.8903 162.31 32.2206 162.101C32.5529 161.891 32.9393 161.786 33.3796 161.786C33.8199 161.786 34.2052 161.891 34.5355 162.101C34.8678 162.31 35.1261 162.604 35.3103 162.983C35.4966 163.362 35.5897 163.806 35.5897 164.314C35.5897 164.818 35.4966 165.258 35.3103 165.635C35.1261 166.012 34.8678 166.305 34.5355 166.515C34.2052 166.724 33.8199 166.829 33.3796 166.829ZM33.3796 166.156C33.7141 166.156 33.9893 166.07 34.2052 165.899C34.4212 165.727 34.581 165.502 34.6847 165.222C34.7885 164.943 34.8403 164.64 34.8403 164.314C34.8403 163.988 34.7885 163.684 34.6847 163.403C34.581 163.121 34.4212 162.893 34.2052 162.72C33.9893 162.546 33.7141 162.459 33.3796 162.459C33.0451 162.459 32.7699 162.546 32.554 162.72C32.3381 162.893 32.1782 163.121 32.0745 163.403C31.9708 163.684 31.9189 163.988 31.9189 164.314C31.9189 164.64 31.9708 164.943 32.0745 165.222C32.1782 165.502 32.3381 165.727 32.554 165.899C32.7699 166.07 33.0451 166.156 33.3796 166.156ZM36.7337 166.727V161.85H37.4577V162.586H37.5085C37.5974 162.345 37.7583 162.149 37.9912 161.999C38.224 161.849 38.4865 161.774 38.7787 161.774C38.8337 161.774 38.9025 161.775 38.9851 161.777C39.0677 161.779 39.1301 161.782 39.1724 161.786V162.548C39.147 162.542 39.0888 162.533 38.9978 162.52C38.9089 162.505 38.8147 162.498 38.7152 162.498C38.4781 162.498 38.2664 162.547 38.0801 162.647C37.8959 162.744 37.7498 162.88 37.6419 163.053C37.536 163.225 37.4831 163.421 37.4831 163.641V166.727H36.7337ZM41.7541 166.829C41.3476 166.829 40.9888 166.726 40.6776 166.521C40.3664 166.313 40.123 166.021 39.9473 165.644C39.7715 165.266 39.6837 164.818 39.6837 164.301C39.6837 163.789 39.7715 163.344 39.9473 162.968C40.123 162.591 40.3675 162.3 40.6808 162.094C40.9941 161.889 41.3561 161.786 41.7668 161.786C42.0843 161.786 42.3352 161.839 42.5194 161.945C42.7057 162.049 42.8475 162.167 42.9449 162.301C43.0444 162.432 43.1217 162.54 43.1767 162.625H43.2402V160.224H43.9896V166.727H43.2656V165.978H43.1767C43.1217 166.067 43.0433 166.179 42.9417 166.314C42.8401 166.448 42.6951 166.567 42.5067 166.673C42.3183 166.777 42.0674 166.829 41.7541 166.829ZM41.8557 166.156C42.1563 166.156 42.4104 166.077 42.6178 165.921C42.8253 165.762 42.983 165.543 43.091 165.263C43.1989 164.982 43.2529 164.657 43.2529 164.289C43.2529 163.924 43.2 163.606 43.0941 163.333C42.9883 163.058 42.8316 162.844 42.6242 162.691C42.4167 162.537 42.1605 162.459 41.8557 162.459C41.5382 162.459 41.2735 162.541 41.0618 162.704C40.8523 162.865 40.6945 163.084 40.5887 163.361C40.485 163.637 40.4331 163.946 40.4331 164.289C40.4331 164.636 40.486 164.951 40.5919 165.235C40.6998 165.516 40.8586 165.741 41.0682 165.908C41.2799 166.073 41.5424 166.156 41.8557 166.156ZM45.5678 166.727V160.224H47.7652C48.2754 160.224 48.6925 160.316 49.0164 160.5C49.3424 160.682 49.5837 160.929 49.7404 161.24C49.897 161.551 49.9753 161.898 49.9753 162.282C49.9753 162.665 49.897 163.013 49.7404 163.326C49.5858 163.64 49.3466 163.889 49.0227 164.076C48.6988 164.26 48.2839 164.352 47.7779 164.352H46.2029V163.653H47.7525C48.1018 163.653 48.3823 163.593 48.594 163.472C48.8057 163.352 48.9592 163.189 49.0545 162.983C49.1518 162.776 49.2005 162.542 49.2005 162.282C49.2005 162.021 49.1518 161.788 49.0545 161.583C48.9592 161.378 48.8047 161.217 48.5908 161.1C48.377 160.982 48.0934 160.923 47.7398 160.923H46.3553V166.727H45.5678ZM51.1423 166.727V161.85H51.8663V162.586H51.9171C52.0061 162.345 52.1669 162.149 52.3998 161.999C52.6327 161.849 52.8952 161.774 53.1873 161.774C53.2424 161.774 53.3112 161.775 53.3937 161.777C53.4763 161.779 53.5387 161.782 53.5811 161.786V162.548C53.5557 162.542 53.4975 162.533 53.4064 162.52C53.3175 162.505 53.2233 162.498 53.1238 162.498C52.8867 162.498 52.675 162.547 52.4887 162.647C52.3045 162.744 52.1585 162.88 52.0505 163.053C51.9447 163.225 51.8917 163.421 51.8917 163.641V166.727H51.1423ZM56.366 166.829C55.896 166.829 55.4906 166.725 55.1498 166.518C54.811 166.308 54.5496 166.016 54.3654 165.641C54.1834 165.264 54.0923 164.826 54.0923 164.327C54.0923 163.827 54.1834 163.387 54.3654 163.006C54.5496 162.622 54.8057 162.324 55.1339 162.11C55.4641 161.894 55.8494 161.786 56.2897 161.786C56.5438 161.786 56.7946 161.829 57.0423 161.913C57.29 161.998 57.5155 162.136 57.7187 162.326C57.9219 162.515 58.0839 162.764 58.2045 163.076C58.3252 163.387 58.3855 163.77 58.3855 164.225V164.543H54.6258V163.895H57.6234C57.6234 163.62 57.5684 163.374 57.4583 163.158C57.3503 162.942 57.1958 162.772 56.9947 162.647C56.7957 162.522 56.5607 162.459 56.2897 162.459C55.9913 162.459 55.733 162.534 55.5149 162.682C55.299 162.828 55.1328 163.018 55.0164 163.253C54.9 163.488 54.8417 163.74 54.8417 164.009V164.441C54.8417 164.809 54.9052 165.122 55.0323 165.378C55.1614 165.632 55.3403 165.825 55.5689 165.959C55.7975 166.09 56.0632 166.156 56.366 166.156C56.5628 166.156 56.7407 166.128 56.8994 166.073C57.0603 166.016 57.199 165.931 57.3154 165.819C57.4319 165.705 57.5218 165.563 57.5853 165.394L58.3093 165.597C58.2331 165.842 58.105 166.058 57.9251 166.245C57.7452 166.429 57.5229 166.573 57.2583 166.676C56.9936 166.778 56.6962 166.829 56.366 166.829ZM62.9804 162.942L62.3072 163.133C62.2649 163.02 62.2024 162.911 62.1199 162.806C62.0394 162.698 61.9294 162.609 61.7896 162.539C61.6499 162.469 61.471 162.434 61.253 162.434C60.9545 162.434 60.7057 162.503 60.5068 162.64C60.3099 162.776 60.2114 162.949 60.2114 163.158C60.2114 163.344 60.2792 163.492 60.4147 163.599C60.5502 163.707 60.7618 163.797 61.0498 163.869L61.7738 164.047C62.2099 164.153 62.5348 164.315 62.7486 164.533C62.9624 164.749 63.0693 165.027 63.0693 165.368C63.0693 165.648 62.9889 165.897 62.828 166.118C62.6692 166.338 62.447 166.511 62.1612 166.638C61.8754 166.765 61.543 166.829 61.1641 166.829C60.6666 166.829 60.2548 166.721 59.9288 166.505C59.6028 166.289 59.3964 165.974 59.3096 165.559L60.0209 165.381C60.0887 165.643 60.2167 165.84 60.4051 165.972C60.5957 166.103 60.8444 166.168 61.1514 166.168C61.5007 166.168 61.778 166.094 61.9833 165.946C62.1908 165.796 62.2945 165.616 62.2945 165.406C62.2945 165.237 62.2353 165.095 62.1167 164.981C61.9982 164.864 61.8161 164.778 61.5705 164.72L60.7576 164.53C60.3109 164.424 59.9828 164.26 59.7732 164.038C59.5658 163.813 59.462 163.533 59.462 163.196C59.462 162.921 59.5393 162.678 59.6938 162.466C59.8505 162.254 60.0632 162.088 60.3321 161.967C60.6031 161.847 60.91 161.786 61.253 161.786C61.7357 161.786 62.1146 161.892 62.3898 162.104C62.6671 162.316 62.864 162.595 62.9804 162.942ZM67.6523 162.942L66.9791 163.133C66.9368 163.02 66.8743 162.911 66.7918 162.806C66.7113 162.698 66.6012 162.609 66.4615 162.539C66.3218 162.469 66.1429 162.434 65.9249 162.434C65.6264 162.434 65.3776 162.503 65.1786 162.64C64.9818 162.776 64.8833 162.949 64.8833 163.158C64.8833 163.344 64.9511 163.492 65.0866 163.599C65.222 163.707 65.4337 163.797 65.7216 163.869L66.4457 164.047C66.8817 164.153 67.2067 164.315 67.4205 164.533C67.6343 164.749 67.7412 165.027 67.7412 165.368C67.7412 165.648 67.6608 165.897 67.4999 166.118C67.3411 166.338 67.1188 166.511 66.8331 166.638C66.5473 166.765 66.2149 166.829 65.836 166.829C65.3385 166.829 64.9267 166.721 64.6007 166.505C64.2747 166.289 64.0683 165.974 63.9815 165.559L64.6928 165.381C64.7605 165.643 64.8886 165.84 65.077 165.972C65.2676 166.103 65.5163 166.168 65.8233 166.168C66.1726 166.168 66.4499 166.094 66.6552 165.946C66.8627 165.796 66.9664 165.616 66.9664 165.406C66.9664 165.237 66.9072 165.095 66.7886 164.981C66.67 164.864 66.488 164.778 66.2424 164.72L65.4295 164.53C64.9828 164.424 64.6547 164.26 64.4451 164.038C64.2376 163.813 64.1339 163.533 64.1339 163.196C64.1339 162.921 64.2112 162.678 64.3657 162.466C64.5224 162.254 64.7351 162.088 65.004 161.967C65.275 161.847 65.5819 161.786 65.9249 161.786C66.4075 161.786 66.7865 161.892 67.0617 162.104C67.339 162.316 67.5359 162.595 67.6523 162.942Z" fill="#101010"/>
<rect x="77.4987" y="163.484" width="90.4144" height="2.9807" rx="1.49035" fill="#D9D9D9"/>
<rect x="77.4986" y="163.285" width="71.5367" height="2.9807" rx="1.49035" fill="#040404"/>
<path d="M0.787513 181.436V174.932H1.57503V177.828H5.04263V174.932H5.83014V181.436H5.04263V178.527H1.57503V181.436H0.787513ZM7.0511 175.631V174.932H11.9286V175.631H9.88361V181.436H9.0961V175.631H7.0511ZM13.144 174.932H14.0839L16.2941 180.331H16.3703L18.5804 174.932H19.5203V181.436H18.7836V176.495H18.7201L16.6878 181.436H15.9765L13.9442 176.495H13.8807V181.436H13.144V174.932ZM21.0993 181.436V174.932H21.8868V180.737H24.9099V181.436H21.0993Z" fill="#101010"/>
<rect x="77.4986" y="178.391" width="90.4144" height="2.9807" rx="1.49035" fill="#D9D9D9"/>
<rect x="77.4987" y="178.589" width="78.4917" height="2.9807" rx="1.49035" fill="#040404"/>
<path d="M6.02067 192.144H5.23315C5.18658 191.918 5.10508 191.719 4.98864 191.547C4.87433 191.376 4.73461 191.232 4.56948 191.115C4.40648 190.997 4.22548 190.908 4.02648 190.848C3.82748 190.789 3.62002 190.76 3.40409 190.76C3.01033 190.76 2.65362 190.859 2.33396 191.058C2.01642 191.257 1.76344 191.55 1.57503 191.938C1.38873 192.325 1.29559 192.8 1.29559 193.363C1.29559 193.927 1.38873 194.402 1.57503 194.789C1.76344 195.177 2.01642 195.47 2.33396 195.669C2.65362 195.868 3.01033 195.967 3.40409 195.967C3.62002 195.967 3.82748 195.938 4.02648 195.878C4.22548 195.819 4.40648 195.731 4.56948 195.615C4.73461 195.496 4.87433 195.351 4.98864 195.18C5.10508 195.006 5.18658 194.807 5.23315 194.583H6.02067C5.96139 194.915 5.85343 195.213 5.69677 195.475C5.54012 195.738 5.34535 195.961 5.11249 196.145C4.87962 196.327 4.61817 196.466 4.32815 196.561C4.04024 196.656 3.73222 196.704 3.40409 196.704C2.84944 196.704 2.35619 196.569 1.92433 196.298C1.49247 196.027 1.15269 195.641 0.905005 195.142C0.65732 194.642 0.533477 194.049 0.533477 193.363C0.533477 192.678 0.65732 192.085 0.905005 191.585C1.15269 191.086 1.49247 190.7 1.92433 190.429C2.35619 190.158 2.84944 190.023 3.40409 190.023C3.73222 190.023 4.04024 190.07 4.32815 190.166C4.61817 190.261 4.87962 190.401 5.11249 190.585C5.34535 190.767 5.54012 190.989 5.69677 191.252C5.85343 191.512 5.96139 191.81 6.02067 192.144ZM10.8497 191.738C10.8116 191.416 10.6571 191.166 10.3861 190.988C10.1152 190.81 9.78279 190.721 9.38903 190.721C9.10113 190.721 8.84921 190.768 8.63327 190.861C8.41946 190.954 8.25222 191.082 8.13155 191.245C8.013 191.408 7.95373 191.594 7.95373 191.801C7.95373 191.975 7.99501 192.124 8.07757 192.249C8.16225 192.372 8.27021 192.474 8.40147 192.557C8.53272 192.637 8.67032 192.704 8.81428 192.757C8.95823 192.808 9.09054 192.849 9.21121 192.881L9.8717 193.059C10.0411 193.103 10.2295 193.164 10.4369 193.243C10.6465 193.321 10.8466 193.428 11.0371 193.563C11.2297 193.697 11.3885 193.868 11.5134 194.078C11.6383 194.288 11.7008 194.545 11.7008 194.85C11.7008 195.201 11.6087 195.519 11.4245 195.802C11.2424 196.086 10.9757 196.311 10.6243 196.479C10.275 196.646 9.85053 196.729 9.35093 196.729C8.88519 196.729 8.48191 196.654 8.14108 196.504C7.80236 196.354 7.53562 196.144 7.34086 195.875C7.14822 195.606 7.0392 195.294 7.01379 194.938H7.82671C7.84788 195.184 7.93044 195.387 8.07439 195.548C8.22047 195.707 8.40464 195.825 8.62692 195.904C8.85132 195.98 9.09266 196.018 9.35093 196.018C9.65154 196.018 9.92145 195.969 10.1607 195.872C10.3999 195.773 10.5894 195.635 10.7291 195.459C10.8688 195.281 10.9387 195.074 10.9387 194.837C10.9387 194.621 10.8783 194.445 10.7577 194.31C10.637 194.174 10.4782 194.064 10.2813 193.979C10.0845 193.895 9.8717 193.821 9.64307 193.757L8.84286 193.529C8.33478 193.382 7.93256 193.174 7.63618 192.903C7.33981 192.632 7.19162 192.277 7.19162 191.839C7.19162 191.475 7.29006 191.158 7.48693 190.887C7.68593 190.613 7.95267 190.402 8.28715 190.251C8.62375 190.099 8.99951 190.023 9.41444 190.023C9.8336 190.023 10.2062 190.098 10.5322 190.248C10.8582 190.397 11.1165 190.6 11.307 190.858C11.4997 191.116 11.6013 191.409 11.6119 191.738H10.8497ZM16.5521 191.738C16.514 191.416 16.3594 191.166 16.0885 190.988C15.8175 190.81 15.4851 190.721 15.0914 190.721C14.8035 190.721 14.5515 190.768 14.3356 190.861C14.1218 190.954 13.9545 191.082 13.8339 191.245C13.7153 191.408 13.6561 191.594 13.6561 191.801C13.6561 191.975 13.6973 192.124 13.7799 192.249C13.8646 192.372 13.9725 192.474 14.1038 192.557C14.235 192.637 14.3726 192.704 14.5166 192.757C14.6606 192.808 14.7929 192.849 14.9135 192.881L15.574 193.059C15.7434 193.103 15.9318 193.164 16.1393 193.243C16.3488 193.321 16.5489 193.428 16.7394 193.563C16.9321 193.697 17.0908 193.868 17.2157 194.078C17.3406 194.288 17.4031 194.545 17.4031 194.85C17.4031 195.201 17.311 195.519 17.1268 195.802C16.9448 196.086 16.678 196.311 16.3266 196.479C15.9773 196.646 15.5529 196.729 15.0533 196.729C14.5875 196.729 14.1842 196.654 13.8434 196.504C13.5047 196.354 13.238 196.144 13.0432 195.875C12.8505 195.606 12.7415 195.294 12.7161 194.938H13.529C13.5502 195.184 13.6328 195.387 13.7767 195.548C13.9228 195.707 14.107 195.825 14.3293 195.904C14.5537 195.98 14.795 196.018 15.0533 196.018C15.3539 196.018 15.6238 195.969 15.863 195.872C16.1022 195.773 16.2917 195.635 16.4314 195.459C16.5711 195.281 16.641 195.074 16.641 194.837C16.641 194.621 16.5807 194.445 16.46 194.31C16.3393 194.174 16.1805 194.064 15.9837 193.979C15.7868 193.895 15.574 193.821 15.3454 193.757L14.5452 193.529C14.0371 193.382 13.6349 193.174 13.3385 192.903C13.0421 192.632 12.8939 192.277 12.8939 191.839C12.8939 191.475 12.9924 191.158 13.1893 190.887C13.3883 190.613 13.655 190.402 13.9895 190.251C14.3261 190.099 14.7018 190.023 15.1168 190.023C15.5359 190.023 15.9085 190.098 16.2345 190.248C16.5605 190.397 16.8188 190.6 17.0093 190.858C17.202 191.116 17.3036 191.409 17.3142 191.738H16.5521Z" fill="#101010"/>
<rect x="77.4986" y="193.769" width="90.4144" height="2.9807" rx="1.49035" fill="#D9D9D9"/>
<rect x="77.4987" y="194.166" width="78.4917" height="2.9807" rx="1.49035" fill="#040404"/>
<path d="M3.27707 204.82H4.06459V209.469C4.06459 209.884 3.98837 210.237 3.83595 210.527C3.68353 210.817 3.46866 211.037 3.19133 211.187C2.91401 211.337 2.58694 211.413 2.21012 211.413C1.85447 211.413 1.53798 211.348 1.26066 211.219C0.983333 211.088 0.765285 210.901 0.606512 210.66C0.44774 210.419 0.368353 210.132 0.368353 209.799H1.14316C1.14316 209.984 1.18868 210.144 1.27971 210.282C1.37286 210.418 1.49987 210.523 1.66076 210.6C1.82165 210.676 2.00477 210.714 2.21012 210.714C2.43663 210.714 2.62928 210.666 2.78805 210.571C2.94682 210.476 3.06749 210.336 3.15005 210.152C3.23473 209.966 3.27707 209.738 3.27707 209.469V204.82ZM6.97648 211.438C6.6674 211.438 6.3869 211.38 6.13498 211.263C5.88306 211.145 5.68301 210.974 5.53482 210.752C5.38663 210.528 5.31254 210.257 5.31254 209.939C5.31254 209.66 5.36758 209.433 5.47766 209.26C5.58775 209.084 5.73488 208.946 5.91905 208.847C6.10323 208.747 6.30646 208.673 6.52874 208.624C6.75314 208.574 6.9786 208.533 7.20511 208.504C7.50149 208.466 7.74177 208.437 7.92594 208.418C8.11224 208.397 8.24772 208.362 8.3324 208.313C8.4192 208.265 8.46259 208.18 8.46259 208.059V208.034C8.46259 207.721 8.37686 207.477 8.20538 207.303C8.03602 207.13 7.77881 207.043 7.43375 207.043C7.07598 207.043 6.79548 207.121 6.59225 207.278C6.38902 207.435 6.24612 207.602 6.16356 207.78L5.45226 207.526C5.57928 207.229 5.74864 206.999 5.96033 206.834C6.17415 206.666 6.40701 206.55 6.65893 206.484C6.91297 206.416 7.16277 206.383 7.40834 206.383C7.565 206.383 7.74494 206.402 7.94817 206.44C8.15352 206.476 8.35145 206.551 8.54198 206.665C8.73462 206.78 8.89446 206.952 9.02147 207.183C9.14849 207.414 9.212 207.723 9.212 208.11V211.324H8.46259V210.663H8.42449C8.37368 210.769 8.289 210.882 8.17045 211.003C8.0519 211.124 7.89419 211.226 7.69731 211.311C7.50043 211.396 7.26015 211.438 6.97648 211.438ZM7.0908 210.765C7.38717 210.765 7.63697 210.707 7.8402 210.59C8.04555 210.474 8.20009 210.323 8.30382 210.139C8.40967 209.955 8.46259 209.761 8.46259 209.558V208.872C8.43084 208.91 8.36098 208.945 8.25301 208.977C8.14717 209.007 8.02438 209.033 7.88466 209.056C7.74706 209.078 7.61263 209.097 7.48138 209.113C7.35224 209.128 7.24745 209.141 7.16701 209.152C6.97225 209.177 6.79019 209.218 6.62083 209.275C6.45359 209.33 6.3181 209.414 6.21437 209.526C6.11276 209.636 6.06195 209.787 6.06195 209.977C6.06195 210.238 6.15827 210.434 6.35091 210.568C6.54568 210.699 6.7923 210.765 7.0908 210.765ZM14.3936 206.446L12.5899 211.324H11.8278L10.0241 206.446H10.837L12.1834 210.333H12.2342L13.5806 206.446H14.3936ZM16.6696 211.438C16.3605 211.438 16.08 211.38 15.8281 211.263C15.5761 211.145 15.3761 210.974 15.2279 210.752C15.0797 210.528 15.0056 210.257 15.0056 209.939C15.0056 209.66 15.0607 209.433 15.1707 209.26C15.2808 209.084 15.428 208.946 15.6121 208.847C15.7963 208.747 15.9995 208.673 16.2218 208.624C16.4462 208.574 16.6717 208.533 16.8982 208.504C17.1946 208.466 17.4348 208.437 17.619 208.418C17.8053 208.397 17.9408 208.362 18.0255 208.313C18.1123 208.265 18.1557 208.18 18.1557 208.059V208.034C18.1557 207.721 18.0699 207.477 17.8985 207.303C17.7291 207.13 17.4719 207.043 17.1268 207.043C16.7691 207.043 16.4886 207.121 16.2853 207.278C16.0821 207.435 15.9392 207.602 15.8566 207.78L15.1453 207.526C15.2724 207.229 15.4417 206.999 15.6534 206.834C15.8672 206.666 16.1001 206.55 16.352 206.484C16.6061 206.416 16.8559 206.383 17.1014 206.383C17.2581 206.383 17.438 206.402 17.6413 206.44C17.8466 206.476 18.0445 206.551 18.2351 206.665C18.4277 206.78 18.5875 206.952 18.7146 207.183C18.8416 207.414 18.9051 207.723 18.9051 208.11V211.324H18.1557V210.663H18.1176C18.0668 210.769 17.9821 210.882 17.8635 211.003C17.745 211.124 17.5873 211.226 17.3904 211.311C17.1935 211.396 16.9532 211.438 16.6696 211.438ZM16.7839 210.765C17.0803 210.765 17.3301 210.707 17.5333 210.59C17.7386 210.474 17.8932 210.323 17.9969 210.139C18.1028 209.955 18.1557 209.761 18.1557 209.558V208.872C18.1239 208.91 18.0541 208.945 17.9461 208.977C17.8402 209.007 17.7175 209.033 17.5777 209.056C17.4401 209.078 17.3057 209.097 17.1745 209.113C17.0453 209.128 16.9405 209.141 16.8601 209.152C16.6653 209.177 16.4833 209.218 16.3139 209.275C16.1467 209.33 16.0112 209.414 15.9075 209.526C15.8058 209.636 15.755 209.787 15.755 209.977C15.755 210.238 15.8514 210.434 16.044 210.568C16.2388 210.699 16.4854 210.765 16.7839 210.765ZM23.7278 207.538L23.0546 207.729C23.0123 207.617 22.9498 207.508 22.8673 207.402C22.7868 207.294 22.6767 207.205 22.537 207.135C22.3973 207.065 22.2184 207.03 22.0004 207.03C21.7019 207.03 21.4531 207.099 21.2541 207.237C21.0573 207.372 20.9588 207.545 20.9588 207.754C20.9588 207.941 21.0266 208.088 21.162 208.196C21.2975 208.304 21.5092 208.394 21.7971 208.466L22.5211 208.644C22.9572 208.749 23.2822 208.911 23.496 209.129C23.7098 209.345 23.8167 209.624 23.8167 209.965C23.8167 210.244 23.7363 210.494 23.5754 210.714C23.4166 210.934 23.1943 211.108 22.9085 211.235C22.6228 211.362 22.2904 211.425 21.9115 211.425C21.414 211.425 21.0022 211.317 20.6762 211.101C20.3502 210.885 20.1438 210.57 20.057 210.155L20.7683 209.977C20.836 210.24 20.9641 210.437 21.1525 210.568C21.343 210.699 21.5918 210.765 21.8987 210.765C22.248 210.765 22.5254 210.691 22.7307 210.542C22.9382 210.392 23.0419 210.212 23.0419 210.003C23.0419 209.833 22.9826 209.691 22.8641 209.577C22.7455 209.461 22.5635 209.374 22.3179 209.317L21.505 209.126C21.0583 209.02 20.7302 208.856 20.5206 208.634C20.3131 208.41 20.2094 208.129 20.2094 207.792C20.2094 207.517 20.2867 207.274 20.4412 207.062C20.5979 206.85 20.8106 206.684 21.0795 206.564C21.3505 206.443 21.6574 206.383 22.0004 206.383C22.483 206.383 22.862 206.488 23.1372 206.7C23.4145 206.912 23.6114 207.191 23.7278 207.538ZM26.9263 211.425C26.469 211.425 26.0753 211.317 25.745 211.101C25.4148 210.885 25.1607 210.588 24.9829 210.209C24.8051 209.83 24.7162 209.397 24.7162 208.91C24.7162 208.415 24.8072 207.978 24.9893 207.599C25.1734 207.218 25.4296 206.92 25.7577 206.706C26.088 206.491 26.4733 206.383 26.9136 206.383C27.2565 206.383 27.5656 206.446 27.8408 206.573C28.116 206.7 28.3415 206.878 28.5172 207.107C28.6929 207.335 28.8019 207.602 28.8443 207.907H28.0949C28.0377 207.685 27.9107 207.488 27.7138 207.316C27.519 207.143 27.2565 207.056 26.9263 207.056C26.6341 207.056 26.378 207.132 26.1578 207.284C25.9398 207.435 25.7694 207.647 25.6466 207.923C25.5259 208.196 25.4656 208.517 25.4656 208.885C25.4656 209.262 25.5249 209.59 25.6434 209.869C25.7641 210.149 25.9334 210.366 26.1515 210.52C26.3716 210.675 26.6299 210.752 26.9263 210.752C27.1211 210.752 27.2978 210.718 27.4566 210.65C27.6154 210.583 27.7498 210.485 27.8599 210.358C27.97 210.231 28.0483 210.079 28.0949 209.901H28.8443C28.8019 210.189 28.6971 210.448 28.5299 210.679C28.3648 210.908 28.1457 211.09 27.8726 211.225C27.6016 211.359 27.2862 211.425 26.9263 211.425ZM29.9398 211.324V206.446H30.6638V207.183H30.7146C30.8035 206.941 30.9644 206.746 31.1973 206.595C31.4301 206.445 31.6927 206.37 31.9848 206.37C32.0398 206.37 32.1086 206.371 32.1912 206.373C32.2738 206.375 32.3362 206.378 32.3786 206.383V207.145C32.3531 207.138 32.2949 207.129 32.2039 207.116C32.115 207.101 32.0208 207.094 31.9213 207.094C31.6842 207.094 31.4725 207.144 31.2862 207.243C31.102 207.341 30.9559 207.476 30.848 207.65C30.7421 207.821 30.6892 208.017 30.6892 208.237V211.324H29.9398ZM33.2669 211.324V206.446H34.0163V211.324H33.2669ZM33.6479 205.633C33.5019 205.633 33.3759 205.583 33.2701 205.484C33.1663 205.384 33.1145 205.265 33.1145 205.125C33.1145 204.985 33.1663 204.866 33.2701 204.766C33.3759 204.667 33.5019 204.617 33.6479 204.617C33.794 204.617 33.9189 204.667 34.0226 204.766C34.1285 204.866 34.1814 204.985 34.1814 205.125C34.1814 205.265 34.1285 205.384 34.0226 205.484C33.9189 205.583 33.794 205.633 33.6479 205.633ZM35.3889 213.153V206.446H36.1129V207.221H36.2018C36.2568 207.136 36.3331 207.028 36.4304 206.897C36.5299 206.764 36.6718 206.645 36.8559 206.541C37.0422 206.436 37.2942 206.383 37.6117 206.383C38.0224 206.383 38.3844 206.485 38.6977 206.691C39.011 206.896 39.2555 207.187 39.4312 207.564C39.607 207.941 39.6948 208.385 39.6948 208.898C39.6948 209.414 39.607 209.862 39.4312 210.241C39.2555 210.618 39.0121 210.91 38.7009 211.117C38.3897 211.323 38.0309 211.425 37.6244 211.425C37.3111 211.425 37.0602 211.373 36.8718 211.27C36.6834 211.164 36.5384 211.044 36.4368 210.911C36.3352 210.775 36.2568 210.663 36.2018 210.574H36.1383V213.153H35.3889ZM36.1256 208.885C36.1256 209.253 36.1796 209.578 36.2875 209.86C36.3955 210.139 36.5532 210.358 36.7607 210.517C36.9681 210.674 37.2222 210.752 37.5228 210.752C37.8361 210.752 38.0976 210.669 38.3071 210.504C38.5188 210.337 38.6776 210.113 38.7835 209.831C38.8914 209.547 38.9454 209.232 38.9454 208.885C38.9454 208.542 38.8925 208.233 38.7866 207.958C38.6829 207.68 38.5252 207.461 38.3135 207.3C38.1039 207.137 37.8403 207.056 37.5228 207.056C37.218 207.056 36.9618 207.133 36.7543 207.288C36.5469 207.44 36.3902 207.654 36.2844 207.929C36.1785 208.202 36.1256 208.521 36.1256 208.885ZM42.9592 206.446V207.081H40.4315V206.446H42.9592ZM41.1682 205.278H41.9176V209.926C41.9176 210.138 41.9483 210.297 42.0097 210.403C42.0732 210.506 42.1537 210.576 42.2511 210.612C42.3505 210.646 42.4553 210.663 42.5654 210.663C42.648 210.663 42.7157 210.659 42.7686 210.65C42.8216 210.64 42.8639 210.631 42.8957 210.625L43.0481 211.298C42.9973 211.317 42.9264 211.336 42.8353 211.355C42.7443 211.377 42.6289 211.387 42.4892 211.387C42.2775 211.387 42.07 211.342 41.8668 211.251C41.6657 211.16 41.4985 211.021 41.3651 210.835C41.2338 210.648 41.1682 210.413 41.1682 210.13V205.278Z" fill="#101010"/>
<rect x="77.4986" y="207.484" width="90.4144" height="2.9807" rx="1.49035" fill="#D9D9D9"/>
<rect x="77" y="208" width="50" height="3" rx="1.5" fill="#040404"/>
<path d="M0.787513 226.032V219.529H2.98493C3.49512 219.529 3.91216 219.621 4.23606 219.805C4.56207 219.987 4.80341 220.234 4.96006 220.545C5.11672 220.856 5.19505 221.204 5.19505 221.587C5.19505 221.97 5.11672 222.318 4.96006 222.631C4.80553 222.945 4.56631 223.195 4.24241 223.381C3.91851 223.565 3.50359 223.657 2.99763 223.657H1.4226V222.959H2.97223C3.32153 222.959 3.60203 222.898 3.81372 222.778C4.02542 222.657 4.1789 222.494 4.27417 222.288C4.37155 222.081 4.42024 221.847 4.42024 221.587C4.42024 221.326 4.37155 221.093 4.27417 220.888C4.1789 220.683 4.02436 220.522 3.81055 220.405C3.59673 220.287 3.31306 220.228 2.95953 220.228H1.57503V226.032H0.787513ZM6.8447 227.861C6.71768 227.861 6.60442 227.851 6.50492 227.83C6.40543 227.811 6.33663 227.792 6.29852 227.772L6.48905 227.112C6.67111 227.159 6.832 227.176 6.97172 227.163C7.11144 227.15 7.23528 227.088 7.34325 226.975C7.45333 226.865 7.55388 226.686 7.64491 226.439L7.78463 226.058L5.98097 221.155H6.79389L8.14029 225.042H8.19109L9.53749 221.155H10.3504L8.28001 226.744C8.18686 226.996 8.07148 227.204 7.93388 227.369C7.79628 227.536 7.63645 227.66 7.45439 227.741C7.27444 227.821 7.07121 227.861 6.8447 227.861ZM13.4608 221.155V221.79H10.9331V221.155H13.4608ZM11.6698 219.986H12.4192V224.635C12.4192 224.847 12.4499 225.006 12.5113 225.111C12.5748 225.215 12.6553 225.285 12.7526 225.321C12.8521 225.355 12.9569 225.372 13.067 225.372C13.1496 225.372 13.2173 225.368 13.2702 225.359C13.3232 225.349 13.3655 225.34 13.3973 225.334L13.5497 226.007C13.4989 226.026 13.428 226.045 13.3369 226.064C13.2459 226.085 13.1305 226.096 12.9908 226.096C12.7791 226.096 12.5716 226.05 12.3684 225.959C12.1673 225.868 12.0001 225.73 11.8667 225.543C11.7354 225.357 11.6698 225.122 11.6698 224.838V219.986ZM15.4422 223.098V226.032H14.6928V219.529H15.4422V221.917H15.5058C15.6201 221.665 15.7915 221.465 16.0202 221.317C16.2509 221.166 16.5579 221.091 16.9411 221.091C17.2734 221.091 17.5645 221.158 17.8143 221.291C18.0641 221.423 18.2578 221.625 18.3954 221.898C18.5351 222.169 18.605 222.514 18.605 222.933V226.032H17.8556V222.984C17.8556 222.597 17.755 222.297 17.5539 222.085C17.3549 221.871 17.0787 221.765 16.7251 221.765C16.4796 221.765 16.2594 221.816 16.0646 221.92C15.872 222.024 15.7196 222.175 15.6074 222.374C15.4973 222.573 15.4422 222.815 15.4422 223.098ZM21.9575 226.134C21.5172 226.134 21.1308 226.029 20.7985 225.82C20.4682 225.61 20.2099 225.317 20.0236 224.94C19.8395 224.563 19.7474 224.123 19.7474 223.619C19.7474 223.111 19.8395 222.667 20.0236 222.288C20.2099 221.91 20.4682 221.615 20.7985 221.406C21.1308 221.196 21.5172 221.091 21.9575 221.091C22.3978 221.091 22.7831 221.196 23.1134 221.406C23.4457 221.615 23.704 221.91 23.8882 222.288C24.0745 222.667 24.1676 223.111 24.1676 223.619C24.1676 224.123 24.0745 224.563 23.8882 224.94C23.704 225.317 23.4457 225.61 23.1134 225.82C22.7831 226.029 22.3978 226.134 21.9575 226.134ZM21.9575 225.461C22.292 225.461 22.5672 225.375 22.7831 225.204C22.999 225.032 23.1589 224.807 23.2626 224.527C23.3663 224.248 23.4182 223.945 23.4182 223.619C23.4182 223.293 23.3663 222.989 23.2626 222.708C23.1589 222.426 22.999 222.199 22.7831 222.025C22.5672 221.851 22.292 221.765 21.9575 221.765C21.623 221.765 21.3478 221.851 21.1319 222.025C20.9159 222.199 20.7561 222.426 20.6524 222.708C20.5486 222.989 20.4968 223.293 20.4968 223.619C20.4968 223.945 20.5486 224.248 20.6524 224.527C20.7561 224.807 20.9159 225.032 21.1319 225.204C21.3478 225.375 21.623 225.461 21.9575 225.461ZM26.061 223.098V226.032H25.3116V221.155H26.0356V221.917H26.0991C26.2134 221.669 26.387 221.47 26.6199 221.32C26.8527 221.168 27.1533 221.091 27.5217 221.091C27.8519 221.091 28.1409 221.159 28.3886 221.295C28.6363 221.428 28.8289 221.631 28.9665 221.904C29.1041 222.175 29.1729 222.518 29.1729 222.933V226.032H28.4235V222.984C28.4235 222.601 28.324 222.302 28.125 222.088C27.926 221.872 27.6529 221.765 27.3058 221.765C27.0665 221.765 26.8527 221.816 26.6643 221.92C26.478 222.024 26.3309 222.175 26.2229 222.374C26.115 222.573 26.061 222.815 26.061 223.098Z" fill="#101010"/>
<rect x="77.4986" y="222.193" width="90.4144" height="2.9807" rx="1.49035" fill="#D9D9D9"/>
<path d="M77.4987 223.881C77.4987 223.058 78.166 222.391 78.9891 222.391H93.8925C94.7156 222.391 95.3829 223.058 95.3829 223.881V223.881C95.3829 224.705 94.7156 225.372 93.8925 225.372H78.9891C78.166 225.372 77.4987 224.705 77.4987 223.881V223.881Z" fill="#040404"/>
<path d="M3.27707 237.497H4.06459V242.146C4.06459 242.56 3.98837 242.913 3.83595 243.203C3.68353 243.493 3.46866 243.713 3.19133 243.863C2.91401 244.014 2.58694 244.089 2.21012 244.089C1.85447 244.089 1.53798 244.024 1.26066 243.895C0.983333 243.764 0.765285 243.578 0.606512 243.336C0.44774 243.095 0.368353 242.808 0.368353 242.476H1.14316C1.14316 242.66 1.18868 242.821 1.27971 242.958C1.37286 243.094 1.49987 243.2 1.66076 243.276C1.82165 243.352 2.00477 243.39 2.21012 243.39C2.43663 243.39 2.62928 243.343 2.78805 243.247C2.94682 243.152 3.06749 243.012 3.15005 242.828C3.23473 242.642 3.27707 242.414 3.27707 242.146V237.497ZM7.58617 244.102C7.1162 244.102 6.7108 243.998 6.36997 243.79C6.03125 243.581 5.76981 243.289 5.58563 242.914C5.40357 242.537 5.31254 242.099 5.31254 241.599C5.31254 241.1 5.40357 240.659 5.58563 240.278C5.76981 239.895 6.02596 239.597 6.35409 239.383C6.68434 239.167 7.06963 239.059 7.50996 239.059C7.76399 239.059 8.01485 239.101 8.26254 239.186C8.51023 239.271 8.73568 239.408 8.93891 239.599C9.14214 239.787 9.30409 240.037 9.42476 240.348C9.54542 240.659 9.60576 241.043 9.60576 241.498V241.815H5.84602V241.167H8.84365C8.84365 240.892 8.78861 240.647 8.67853 240.431C8.57056 240.215 8.41602 240.044 8.21491 239.92C8.01591 239.795 7.78093 239.732 7.50996 239.732C7.21146 239.732 6.95319 239.806 6.73515 239.954C6.51921 240.101 6.35303 240.291 6.2366 240.526C6.12016 240.761 6.06195 241.013 6.06195 241.282V241.714C6.06195 242.082 6.12546 242.394 6.25248 242.65C6.38161 242.904 6.56049 243.098 6.78913 243.232C7.01776 243.363 7.28344 243.428 7.58617 243.428C7.78305 243.428 7.96087 243.401 8.11964 243.346C8.28053 243.289 8.4192 243.204 8.53563 243.092C8.65206 242.978 8.74203 242.836 8.80554 242.666L9.52955 242.87C9.45334 243.115 9.32526 243.331 9.14532 243.517C8.96537 243.702 8.74309 243.845 8.47847 243.949C8.21385 244.051 7.91642 244.102 7.58617 244.102ZM11.4443 242.222L11.4316 241.295H11.5841L13.718 239.122H14.6452L12.3716 241.422H12.3081L11.4443 242.222ZM10.7457 244V237.497H11.4952V244H10.7457ZM13.845 244L11.9397 241.587L12.4732 241.066L14.7976 244H13.845ZM15.6098 244V239.122H16.3592V244H15.6098ZM15.9908 238.31C15.8447 238.31 15.7188 238.26 15.6129 238.16C15.5092 238.061 15.4573 237.941 15.4573 237.802C15.4573 237.662 15.5092 237.542 15.6129 237.443C15.7188 237.343 15.8447 237.293 15.9908 237.293C16.1369 237.293 16.2618 237.343 16.3655 237.443C16.4714 237.542 16.5243 237.662 16.5243 237.802C16.5243 237.941 16.4714 238.061 16.3655 238.16C16.2618 238.26 16.1369 238.31 15.9908 238.31ZM18.4812 237.497V244H17.7318V237.497H18.4812ZM20.6032 237.497V244H19.8538V237.497H20.6032Z" fill="#101010"/>
<rect x="77.4986" y="240.16" width="90.4144" height="2.9807" rx="1.49035" fill="#D9D9D9"/>
<path d="M77 241.5C77 240.672 77.6716 240 78.5 240H142.5C143.328 240 144 240.672 144 241.5V241.5C144 242.328 143.328 243 142.5 243H78.5C77.6716 243 77 242.328 77 241.5V241.5Z" fill="#040404"/>
<g filter="url(#filter0_ddd_920_313)">
<rect x="66.5687" y="25.2456" width="14.9035" height="14.9035" rx="7.45174" fill="white"/>
</g>
<path fill-rule="evenodd" clip-rule="evenodd" d="M75.9559 27.0944C76.0486 27.723 75.7927 28.3389 75.4551 28.7746C75.094 29.2419 74.4716 29.6034 73.8685 29.5845C73.7584 28.9827 74.0402 28.3626 74.3832 27.9457C74.7596 27.4857 75.4043 27.1327 75.9559 27.0944ZM77.7679 35.9426C78.0788 35.4661 78.1948 35.2257 78.4361 34.6878C76.6807 34.0202 76.3996 31.5246 78.1367 30.5667C77.607 29.9022 76.8622 29.517 76.1594 29.517C75.6527 29.517 75.3058 29.6491 74.9903 29.7693C74.7273 29.8695 74.4865 29.9612 74.1934 29.9612C73.8765 29.9612 73.5961 29.8606 73.3023 29.7554C72.9796 29.6396 72.6409 29.5182 72.2205 29.5182C71.4318 29.5182 70.5923 30.0002 70.0598 30.8242C69.3115 31.9846 69.4392 34.1663 70.6528 36.0248C71.0865 36.6899 71.6659 37.4372 72.424 37.4439C72.7385 37.447 72.9476 37.3532 73.1741 37.2516C73.4334 37.1353 73.7152 37.0089 74.203 37.0064C74.6937 37.0034 74.971 37.1313 75.2267 37.2493C75.4474 37.3511 75.652 37.4455 75.9639 37.4421C76.7225 37.436 77.3341 36.6078 77.7679 35.9426Z" fill="#868584"/>
<g filter="url(#filter1_ddd_920_313)">
<rect x="84.4539" y="26.2395" width="14.9035" height="14.9035" rx="7.45174" fill="white"/>
</g>
<path d="M91.9044 33.6914H86.7302V28.5166H91.9044V33.6914Z" fill="#868584"/>
<path d="M97.0799 33.6914H91.9044V28.5166H97.0785V33.6914H97.0799Z" fill="#DAE0D2"/>
<path d="M91.9044 38.8663H86.7302V33.6915H91.9044V38.8663Z" fill="#AEB2B4"/>
<path d="M97.0799 38.8663H91.9044V33.6915H97.0785V38.8663H97.0799Z" fill="#ECEBE8"/>
<defs>
<filter id="filter0_ddd_920_313" x="36.7617" y="0.406474" width="74.5174" height="74.5174" filterUnits="userSpaceOnUse" color-interpolation-filters="sRGB">
<feFlood flood-opacity="0" result="BackgroundImageFix"/>
<feColorMatrix in="SourceAlpha" type="matrix" values="0 0 0 0 0 0 0 0 0 0 0 0 0 0 0 0 0 0 127 0" result="hardAlpha"/>
<feOffset dy="4.96783"/>
<feGaussianBlur stdDeviation="14.9035"/>
<feColorMatrix type="matrix" values="0 0 0 0 0 0 0 0 0 0 0 0 0 0 0 0 0 0 0.06 0"/>
<feBlend mode="normal" in2="BackgroundImageFix" result="effect1_dropShadow_920_313"/>
<feColorMatrix in="SourceAlpha" type="matrix" values="0 0 0 0 0 0 0 0 0 0 0 0 0 0 0 0 0 0 127 0" result="hardAlpha"/>
<feOffset dy="3.97426"/>
<feGaussianBlur stdDeviation="4.96783"/>
<feColorMatrix type="matrix" values="0 0 0 0 0 0 0 0 0 0 0 0 0 0 0 0 0 0 0.02 0"/>
<feBlend mode="normal" in2="effect1_dropShadow_920_313" result="effect2_dropShadow_920_313"/>
<feColorMatrix in="SourceAlpha" type="matrix" values="0 0 0 0 0 0 0 0 0 0 0 0 0 0 0 0 0 0 127 0" result="hardAlpha"/>
<feOffset dy="0.993565"/>
<feGaussianBlur stdDeviation="1.98713"/>
<feColorMatrix type="matrix" values="0 0 0 0 0 0 0 0 0 0 0 0 0 0 0 0 0 0 0.03 0"/>
<feBlend mode="normal" in2="effect2_dropShadow_920_313" result="effect3_dropShadow_920_313"/>
<feBlend mode="normal" in="SourceGraphic" in2="effect3_dropShadow_920_313" result="shape"/>
</filter>
<filter id="filter1_ddd_920_313" x="54.647" y="1.40037" width="74.5174" height="74.5174" filterUnits="userSpaceOnUse" color-interpolation-filters="sRGB">
<feFlood flood-opacity="0" result="BackgroundImageFix"/>
<feColorMatrix in="SourceAlpha" type="matrix" values="0 0 0 0 0 0 0 0 0 0 0 0 0 0 0 0 0 0 127 0" result="hardAlpha"/>
<feOffset dy="4.96783"/>
<feGaussianBlur stdDeviation="14.9035"/>
<feColorMatrix type="matrix" values="0 0 0 0 0 0 0 0 0 0 0 0 0 0 0 0 0 0 0.06 0"/>
<feBlend mode="normal" in2="BackgroundImageFix" result="effect1_dropShadow_920_313"/>
<feColorMatrix in="SourceAlpha" type="matrix" values="0 0 0 0 0 0 0 0 0 0 0 0 0 0 0 0 0 0 127 0" result="hardAlpha"/>
<feOffset dy="3.97426"/>
<feGaussianBlur stdDeviation="4.96783"/>
<feColorMatrix type="matrix" values="0 0 0 0 0 0 0 0 0 0 0 0 0 0 0 0 0 0 0.02 0"/>
<feBlend mode="normal" in2="effect1_dropShadow_920_313" result="effect2_dropShadow_920_313"/>
<feColorMatrix in="SourceAlpha" type="matrix" values="0 0 0 0 0 0 0 0 0 0 0 0 0 0 0 0 0 0 127 0" result="hardAlpha"/>
<feOffset dy="0.993565"/>
<feGaussianBlur stdDeviation="1.98713"/>
<feColorMatrix type="matrix" values="0 0 0 0 0 0 0 0 0 0 0 0 0 0 0 0 0 0 0.03 0"/>
<feBlend mode="normal" in2="effect2_dropShadow_920_313" result="effect3_dropShadow_920_313"/>
<feBlend mode="normal" in="SourceGraphic" in2="effect3_dropShadow_920_313" result="shape"/>
</filter>
</defs>
</svg>
